<?xml version="1.0" encoding="UTF-8" standalone="no"?>
<!-- Generator: Adobe Illustrator 25.2.1, SVG Export Plug-In . SVG Version: 6.00 Build 0)  -->

<svg
   xmlns:dc="http://purl.org/dc/elements/1.1/"
   xmlns:cc="http://creativecommons.org/ns#"
   xmlns:rdf="http://www.w3.org/1999/02/22-rdf-syntax-ns#"
   xmlns:svg="http://www.w3.org/2000/svg"
   xmlns="http://www.w3.org/2000/svg"
   xmlns:sodipodi="http://sodipodi.sourceforge.net/DTD/sodipodi-0.dtd"
   xmlns:inkscape="http://www.inkscape.org/namespaces/inkscape"
   version="1.1"
   id="Layer_1"
   x="0px"
   y="0px"
   viewBox="0 0 369.4657 169.0081"
   xml:space="preserve"
   sodipodi:docname="Business-Herald-Online-Ekin-SVG_cropped.svg"
   width="369.4657"
   height="169.0081"
   inkscape:version="0.92.3 (2405546, 2018-03-11)"><metadata
   id="metadata51"><rdf:RDF><cc:Work
       rdf:about=""><dc:format>image/svg+xml</dc:format><dc:type
         rdf:resource="http://purl.org/dc/dcmitype/StillImage" /></cc:Work></rdf:RDF></metadata><defs
   id="defs49" /><sodipodi:namedview
   pagecolor="#ffffff"
   bordercolor="#666666"
   borderopacity="1"
   objecttolerance="10"
   gridtolerance="10"
   guidetolerance="10"
   inkscape:pageopacity="0"
   inkscape:pageshadow="2"
   inkscape:window-width="640"
   inkscape:window-height="480"
   id="namedview47"
   showgrid="false"
   inkscape:zoom="0.835"
   inkscape:cx="183.7"
   inkscape:cy="84.608104"
   inkscape:window-x="0"
   inkscape:window-y="0"
   inkscape:window-maximized="0"
   inkscape:current-layer="Layer_1" />
<style
   type="text/css"
   id="style2">
	.st0{fill:#231F20;}
</style>
<path
   class="st0"
   d="m 0,34.7 h 38.8 v 6.7 l -8.2,0.7 -2.2,2.2 v 30 H 68 v -30 l -2,-2.2 -8.3,-0.7 v -6.7 h 38.6 v 6.7 l -8,0.7 -2.1,2.2 v 72.8 l 2.1,2.1 8,0.7 v 6.7 H 57.7 v -6.7 l 8.2,-0.7 2,-2.1 V 82.6 H 28.4 v 34.5 l 2.2,2.1 8.2,0.7 v 6.7 H 0 v -6.7 l 8,-0.7 2.2,-2.1 V 44.3 L 8,42.1 0,41.4 Z"
   id="path4"
   inkscape:connector-curvature="0"
   style="fill:#231f20" />
<path
   class="st0"
   d="m 104,127.1 v -3.3 l 4.2,-0.4 1.1,-1.1 V 85.8 l -1.1,-1 -4.2,-0.3 v -3.3 h 34.5 v 10.7 h -4.7 l -1.2,-6 -0.7,-0.9 h -13.7 v 16.3 h 8.9 l 0.9,-1 0.7,-4.9 h 4 v 15.9 h -4 l -0.7,-4.9 -0.9,-0.9 h -8.9 v 17.8 h 16 l 0.8,-1.1 1.1,-7.3 h 4.7 v 12.3 H 104 Z"
   id="path6"
   inkscape:connector-curvature="0"
   style="fill:#231f20" />
<path
   class="st0"
   d="m 144.9,81.1 h 20.8 c 5.3,0 9.3,1 12,3 2.7,2 4.1,4.9 4.1,8.7 0,3.1 -1,5.7 -3,7.7 -2,2 -4.9,3.3 -8.8,4 1.7,0.4 3.1,0.9 4.3,1.6 1.2,0.7 2.1,1.6 2.9,2.6 1,1.4 1.9,3.7 2.9,6.8 0.5,1.5 0.8,2.6 1.1,3.3 0.7,1.8 1.6,3.1 2.8,3.8 1.1,0.7 2.9,1.1 5.3,1.1 h 0.9 v 3.3 c -1.3,0.2 -2.5,0.3 -3.6,0.4 -1.1,0.1 -2.2,0.1 -3.2,0.1 -1.4,0 -2.7,-0.2 -4,-0.6 -1.2,-0.4 -2.3,-0.9 -3.2,-1.6 -2.1,-1.6 -3.7,-4.2 -4.9,-7.9 -0.2,-0.5 -0.3,-0.9 -0.4,-1.2 -1.3,-3.9 -2.7,-6.4 -4.2,-7.6 -1.5,-1.2 -3.7,-1.8 -6.7,-1.8 h -1.2 v 15.4 l 1.1,1.1 4.2,0.4 v 3.3 h -19.3 v -3.3 l 4,-0.4 1.1,-1.1 V 85.7 l -1.1,-1 -4,-0.3 V 81.1 Z M 159,85 v 17.9 c 0.3,0 0.6,0 1,0.1 0.3,0 0.8,0 1.5,0 3.7,0 6.4,-0.7 8.2,-2.2 1.8,-1.5 2.6,-3.8 2.6,-6.9 0,-2.9 -0.9,-5 -2.6,-6.5 -1.7,-1.5 -4.2,-2.2 -7.5,-2.2 H 159 Z"
   id="path8"
   inkscape:connector-curvature="0"
   style="fill:#231f20" />
<path
   class="st0"
   d="m 207.6,80.6 h 7.2 l 15.8,42.4 4,0.7 v 3.3 h -18.5 v -3.3 l 4.3,-0.4 0.5,-0.9 -4.1,-11.6 h -14.9 l -4.1,11.6 0.7,0.9 4.3,0.5 v 3.3 h -14.7 v -3.3 l 4.1,-0.6 z m 1.5,9.4 -6,16.9 h 12.1 z"
   id="path10"
   inkscape:connector-curvature="0"
   style="fill:#231f20" />
<path
   class="st0"
   d="m 235.2,127.1 v -3.3 l 4.2,-0.4 1.2,-1.1 V 85.8 l -1,-1 -4.4,-0.3 v -3.3 h 19.7 v 3.3 l -4.2,0.3 -1.1,1 v 37.3 h 13.2 l 0.9,-1.1 1,-8.3 h 5.1 v 13.4 z"
   id="path12"
   inkscape:connector-curvature="0"
   style="fill:#231f20" />
<path
   class="st0"
   d="m 292.5,81.1 c 7.8,0 13.9,2 18.2,6 4.3,4 6.5,9.7 6.5,17 0,4 -0.7,7.6 -2.1,10.7 -1.4,3.1 -3.5,5.8 -6.3,7.9 -1.9,1.5 -4.2,2.6 -6.7,3.3 -2.6,0.7 -5.7,1 -9.5,1 h -20 v -3.3 l 4.2,-0.4 1.1,-1.1 V 85.9 l -1.1,-1.1 -4.2,-0.3 v -3.4 z m -5.7,3.9 v 38.3 h 4 c 5.4,0 9.5,-1.6 12.2,-4.7 2.7,-3.2 4,-8 4,-14.4 0,-6.4 -1.3,-11.2 -4,-14.4 -2.7,-3.2 -6.7,-4.7 -12.2,-4.7 h -4 z"
   id="path14"
   inkscape:connector-curvature="0"
   style="fill:#231f20" />
<path
   class="st0"
   d="m 104.6,0 h 29.6 c 7.3,0 12.7,1.3 16.4,3.9 3.7,2.6 5.5,6.5 5.5,11.6 0,3.9 -1.2,7.1 -3.6,9.8 -2.4,2.6 -5.9,4.5 -10.5,5.8 5.7,0.1 10.1,1.5 13.2,4.3 3.1,2.8 4.7,6.7 4.7,11.6 0,6.2 -2.1,11 -6.4,14.3 -4.3,3.3 -10.4,5 -18.5,5 h -30.5 v -4.8 l 5.8,-0.5 1.6,-1.5 V 6.7 L 110.3,5.3 104.5,4.8 V 0 Z m 20.3,29.4 c 0.3,0 0.6,0.1 1,0.1 0.4,0 0.9,0 1.7,0 5.1,0 8.9,-1 11.4,-3.1 2.4,-2.1 3.6,-5.3 3.6,-9.7 0,-3.9 -1.1,-6.7 -3.4,-8.6 -2.2,-1.9 -5.7,-2.8 -10.4,-2.8 -0.8,0 -2,0.1 -3.7,0.2 h -0.3 z m 0,31.2 h 0.3 c 2,0.1 3.5,0.1 4.4,0.1 5.8,0 10,-1.1 12.6,-3.2 2.6,-2.1 4,-5.5 4,-10.2 0,-4.2 -1.2,-7.4 -3.7,-9.4 -2.5,-2.1 -6.2,-3.1 -11.1,-3.1 -1.4,0 -2.7,0 -3.6,0 -1,0 -1.9,0.1 -2.9,0.1 z"
   id="path16"
   inkscape:connector-curvature="0"
   style="fill:#231f20" />
<path
   class="st0"
   d="m 169.4,43 h 2.2 v 14.4 c 0,1.8 0.3,3.2 1,4 0.7,0.8 1.8,1.2 3.4,1.2 0.5,0 1.1,-0.1 1.8,-0.2 0.6,-0.1 1.4,-0.3 2.2,-0.6 V 47 h -3 v -1.9 l 6.6,-2.2 h 2.1 v 20.3 l 0.6,0.7 2.4,0.2 v 2.1 h -8.8 v -2.6 c -1.6,1.1 -3,1.8 -4.3,2.3 -1.2,0.5 -2.4,0.7 -3.5,0.7 -2.2,0 -3.8,-0.7 -4.8,-2 -1.1,-1.3 -1.6,-3.3 -1.6,-6 V 47 h -3 v -1.9 z"
   id="path18"
   inkscape:connector-curvature="0"
   style="fill:#231f20" />
<path
   class="st0"
   d="m 208.1,44.1 v 6.2 h -2.8 l -0.5,-3.5 -0.6,-0.5 c -0.5,-0.2 -1,-0.4 -1.5,-0.5 -0.5,-0.1 -1,-0.2 -1.5,-0.2 -1.1,0 -2,0.2 -2.6,0.7 -0.6,0.5 -0.9,1.2 -0.9,2.1 0,0.7 0.2,1.4 0.7,1.9 0.5,0.5 1.7,1.3 3.6,2.2 h 0.1 c 4.5,2.2 6.7,4.3 6.7,6.6 0,2.4 -0.8,4.3 -2.5,5.6 -1.7,1.4 -4,2.1 -7,2.1 -1.2,0 -2.4,-0.1 -3.6,-0.3 -1.3,-0.2 -2.6,-0.5 -4,-0.9 v -6.9 h 2.8 l 0.5,4 0.5,0.5 c 0.6,0.3 1.2,0.6 1.9,0.7 0.7,0.2 1.3,0.3 2,0.3 1.2,0 2.2,-0.3 2.9,-0.9 0.7,-0.6 1.1,-1.4 1.1,-2.5 0,-1.3 -1.3,-2.6 -4,-3.8 -0.9,-0.4 -1.6,-0.7 -2.1,-1 -1.9,-1 -3.3,-1.9 -4.1,-2.8 -0.8,-0.9 -1.2,-2 -1.2,-3.3 0,-2.1 0.8,-3.8 2.5,-5 1.7,-1.3 3.9,-1.9 6.6,-1.9 1.2,0 2.4,0.1 3.5,0.3 1.2,0.1 2.4,0.4 3.5,0.8 z"
   id="path20"
   inkscape:connector-curvature="0"
   style="fill:#231f20" />
<path
   class="st0"
   d="m 218.6,43.1 h 2.3 v 20.1 l 0.7,0.7 2.6,0.2 v 2.1 H 212 v -2.1 l 2.5,-0.2 0.7,-0.7 v -16 h -3.1 v -1.9 z m -0.5,-10.6 c 1,0 1.8,0.3 2.5,1 0.7,0.6 1,1.5 1,2.4 0,1 -0.3,1.9 -1,2.5 -0.6,0.7 -1.5,1 -2.5,1 -1,0 -1.8,-0.3 -2.4,-1 -0.7,-0.7 -1,-1.5 -1,-2.5 0,-1 0.3,-1.8 1,-2.5 0.6,-0.6 1.4,-0.9 2.4,-0.9 z"
   id="path22"
   inkscape:connector-curvature="0"
   style="fill:#231f20" />
<path
   class="st0"
   d="m 226.2,66.2 v -2.1 l 2.4,-0.2 0.7,-0.7 v -16 h -3.2 v -1.9 l 6.7,-2.2 h 2.3 v 2.8 c 1.8,-1 3.3,-1.7 4.6,-2.2 1.3,-0.5 2.4,-0.7 3.4,-0.7 2.1,0 3.7,0.6 4.8,1.9 1.1,1.3 1.6,3.2 1.6,5.8 v 12.5 l 0.6,0.7 2.5,0.2 v 2.1 h -11.4 v -2.1 l 2,-0.2 0.6,-0.7 V 52.1 c 0,-1.7 -0.3,-3 -1,-3.8 -0.7,-0.8 -1.7,-1.2 -3.2,-1.2 -0.6,0 -1.2,0.1 -1.9,0.2 -0.7,0.1 -1.6,0.3 -2.5,0.6 v 15.4 l 0.6,0.7 2,0.2 v 2.1 h -11.6 z"
   id="path24"
   inkscape:connector-curvature="0"
   style="fill:#231f20" />
<path
   class="st0"
   d="m 275.8,60.4 v 3.5 c -1.6,0.9 -3.2,1.6 -4.8,2 -1.6,0.5 -3.2,0.7 -4.9,0.7 -3.5,0 -6.3,-1.1 -8.4,-3.2 -2.1,-2.1 -3.2,-5 -3.2,-8.5 0,-3.5 1.1,-6.4 3.2,-8.6 2.1,-2.2 4.9,-3.4 8.3,-3.4 3.1,0 5.4,0.9 7.1,2.8 1.7,1.8 2.5,4.4 2.5,7.8 v 0.9 h -15.3 v 0.1 c 0,2.7 0.7,4.7 2,6.3 1.3,1.5 3.2,2.3 5.5,2.3 1.2,0 2.5,-0.2 3.8,-0.6 1.5,-0.5 2.9,-1.2 4.2,-2.1 z m -6.1,-8.5 v -0.5 c 0,-1.9 -0.3,-3.3 -1,-4.4 -0.7,-1 -1.7,-1.5 -3,-1.5 -1.4,0 -2.6,0.6 -3.4,1.7 -0.9,1.1 -1.3,2.7 -1.4,4.7 z"
   id="path26"
   inkscape:connector-curvature="0"
   style="fill:#231f20" />
<path
   class="st0"
   d="m 295.7,44.1 v 6.2 h -2.8 l -0.5,-3.5 -0.6,-0.5 c -0.5,-0.2 -1,-0.4 -1.5,-0.5 -0.5,-0.1 -1,-0.2 -1.5,-0.2 -1.1,0 -2,0.2 -2.6,0.7 -0.6,0.5 -0.9,1.2 -0.9,2.1 0,0.7 0.2,1.4 0.7,1.9 0.5,0.5 1.7,1.3 3.6,2.2 h 0.1 c 4.5,2.2 6.7,4.3 6.7,6.6 0,2.4 -0.8,4.3 -2.5,5.6 -1.7,1.4 -4,2.1 -7,2.1 -1.2,0 -2.4,-0.1 -3.6,-0.3 -1.3,-0.2 -2.6,-0.5 -4,-0.9 v -6.9 h 2.8 l 0.5,4 0.5,0.5 c 0.6,0.3 1.2,0.6 1.9,0.7 0.7,0.2 1.3,0.3 2,0.3 1.2,0 2.2,-0.3 2.9,-0.9 0.7,-0.6 1.1,-1.4 1.1,-2.5 0,-1.3 -1.3,-2.6 -4,-3.8 -0.9,-0.4 -1.6,-0.7 -2.1,-1 -1.9,-1 -3.3,-1.9 -4.1,-2.8 -0.8,-0.9 -1.2,-2 -1.2,-3.3 0,-2.1 0.8,-3.8 2.5,-5 1.7,-1.3 3.9,-1.9 6.6,-1.9 1.2,0 2.4,0.1 3.5,0.3 1.2,0.1 2.3,0.4 3.5,0.8 z"
   id="path28"
   inkscape:connector-curvature="0"
   style="fill:#231f20" />
<path
   class="st0"
   d="m 316.5,44.1 v 6.2 h -2.8 l -0.5,-3.5 -0.6,-0.5 c -0.5,-0.2 -1,-0.4 -1.5,-0.5 -0.5,-0.1 -1,-0.2 -1.5,-0.2 -1.1,0 -2,0.2 -2.6,0.7 -0.6,0.5 -0.9,1.2 -0.9,2.1 0,0.7 0.2,1.4 0.7,1.9 0.5,0.5 1.7,1.3 3.6,2.2 h 0.1 c 4.5,2.2 6.7,4.3 6.7,6.6 0,2.4 -0.8,4.3 -2.5,5.6 -1.7,1.4 -4,2.1 -7,2.1 -1.2,0 -2.4,-0.1 -3.6,-0.3 -1.3,-0.2 -2.6,-0.5 -4,-0.9 v -6.9 h 2.8 l 0.5,4 0.5,0.5 c 0.6,0.3 1.2,0.6 1.9,0.7 0.7,0.2 1.3,0.3 2,0.3 1.2,0 2.2,-0.3 2.9,-0.9 0.7,-0.6 1.1,-1.4 1.1,-2.5 0,-1.3 -1.3,-2.6 -4,-3.8 -0.9,-0.4 -1.6,-0.7 -2.1,-1 -1.9,-1 -3.3,-1.9 -4.1,-2.8 -0.8,-0.9 -1.2,-2 -1.2,-3.3 0,-2.1 0.8,-3.8 2.5,-5 1.7,-1.3 3.9,-1.9 6.6,-1.9 1.2,0 2.4,0.1 3.5,0.3 1.1,0.1 2.3,0.4 3.5,0.8 z"
   id="path30"
   inkscape:connector-curvature="0"
   style="fill:#231f20" />
<g
   id="g44"
   transform="translate(-16.3,-28.1)">
	<path
   class="st0"
   d="m 317.2,180.7 c -0.2,1.1 -0.5,2.3 -1,3.6 -0.5,1.3 -1.1,2.5 -1.8,3.5 -0.8,1.1 -1.6,1.9 -2.6,2.6 -1,0.6 -2.2,0.9 -3.5,0.7 -0.3,0.8 -0.7,1.6 -1.1,2.3 -0.4,0.7 -0.9,1.3 -1.4,1.9 -0.5,0.5 -1.1,1 -1.6,1.3 -0.6,0.3 -1.2,0.4 -1.9,0.4 -0.6,0 -1.3,-0.1 -2.1,-0.4 -0.8,-0.2 -1.5,-0.6 -2.1,-1 -0.9,-0.6 -1.5,-1.5 -1.7,-2.7 -0.3,-1.2 -0.3,-2.5 -0.1,-3.9 0.2,-1.4 0.6,-2.9 1.1,-4.4 0.6,-1.5 1.3,-2.9 2.1,-4.1 0.8,-1.2 1.7,-2.2 2.7,-3 1,-0.8 2,-1.2 3,-1.1 2.6,0.8 4.1,2.5 4.5,5.1 0.2,1 0.2,2.1 0.1,3.4 -0.1,1.3 -0.3,2.6 -0.7,3.9 0.9,0.2 1.6,0 2.4,-0.6 0.7,-0.6 1.4,-1.4 1.9,-2.3 0.6,-0.9 1,-1.9 1.4,-2.9 0.4,-1 0.6,-1.8 0.7,-2.4 0.1,-0.4 0.2,-0.6 0.4,-0.8 0.2,-0.1 0.4,-0.2 0.7,-0.1 0.2,0 0.4,0.2 0.6,0.4 0,-0.1 0,0.2 0,0.6 z m -11.6,9.4 c -0.6,-0.5 -0.9,-1.3 -1.1,-2.3 -0.2,-1 -0.2,-2.1 0,-3.2 0.1,-1.1 0.4,-2.1 0.8,-3 0.4,-0.9 0.9,-1.6 1.6,-1.9 -0.2,-0.4 -0.4,-0.7 -0.7,-0.9 -0.3,-0.2 -0.6,-0.2 -0.9,-0.1 -0.8,0.3 -1.6,0.9 -2.3,1.8 -0.7,0.9 -1.3,1.9 -1.7,3 -0.5,1.1 -0.8,2.3 -1.1,3.5 -0.3,1.2 -0.4,2.4 -0.4,3.4 0,1.1 0.1,2 0.3,2.7 0.2,0.8 0.6,1.2 1.1,1.3 0.5,0.1 0.9,0.1 1.4,-0.1 0.4,-0.2 0.8,-0.5 1.2,-0.9 0.4,-0.4 0.7,-0.9 1,-1.5 0.3,-0.6 0.6,-1.2 0.8,-1.8 z"
   id="path32"
   inkscape:connector-curvature="0"
   style="fill:#231f20" />
	<path
   class="st0"
   d="m 320.3,194.5 c 0.1,-1.1 0.4,-2.4 0.6,-3.7 0.3,-1.3 0.6,-2.7 0.9,-4 0.3,-1.3 0.6,-2.6 0.8,-3.9 0.2,-1.3 0.3,-2.4 0.3,-3.3 -0.1,-0.4 -0.4,-0.4 -0.8,0 -0.4,0.4 -0.9,1 -1.5,1.8 -0.6,0.9 -1.2,1.9 -1.8,3.1 -0.6,1.2 -1.2,2.5 -1.8,3.9 -0.5,1.3 -1,2.7 -1.3,4 -0.4,1.4 -0.5,2.6 -0.5,3.7 0,0.1 -0.2,0.3 -0.5,0.3 -0.3,0.1 -0.7,0.1 -1.1,0.1 -0.4,0 -0.8,0 -1.2,-0.1 -0.4,-0.1 -0.7,-0.2 -0.8,-0.3 0.1,-1.4 0.2,-2.9 0.4,-4.6 0.2,-1.6 0.4,-3.3 0.6,-4.9 0.2,-1.6 0.4,-3.3 0.6,-4.9 0.2,-1.6 0.4,-3.1 0.5,-4.5 0.1,-0.2 0.3,-0.4 0.7,-0.5 0.4,-0.1 0.9,-0.2 1.4,-0.2 0.5,0 0.9,0.1 1.3,0.2 0.4,0.1 0.6,0.3 0.6,0.6 -0.1,1.4 -0.3,2.7 -0.5,4.1 -0.2,1.3 -0.4,2.7 -0.6,4.1 0.3,-0.9 0.7,-1.9 1.1,-2.9 0.4,-1 0.9,-2 1.5,-2.9 0.5,-0.9 1.1,-1.7 1.7,-2.4 0.6,-0.7 1.2,-1.1 1.8,-1.3 0.2,-0.1 0.4,-0.1 0.7,0 0.3,0 0.6,0.1 1,0.2 0.4,0.1 0.7,0.2 1,0.3 0.3,0.1 0.6,0.2 0.8,0.3 0.3,0.1 0.6,0.5 0.6,1.2 0.1,0.6 0.1,1.4 0,2.4 -0.1,0.9 -0.2,2 -0.4,3.1 -0.2,1.1 -0.4,2.2 -0.7,3.3 -0.2,1.1 -0.4,2.2 -0.6,3.2 -0.2,1 -0.3,1.8 -0.4,2.5 0,0.3 -0.1,0.5 -0.1,0.8 0,0.2 0,0.4 0,0.6 0.1,0.2 0.2,0.3 0.3,0.4 0.2,0.1 0.5,0.1 0.9,0.1 0.7,-0.1 1.3,-0.5 2,-1.2 0.7,-0.7 1.3,-1.6 1.8,-2.6 0.5,-1 1,-2 1.3,-3 0.3,-1 0.5,-1.8 0.5,-2.4 0,-0.3 0.1,-0.5 0.3,-0.6 0.2,-0.1 0.4,-0.1 0.7,-0.1 0.3,0 0.5,0.2 0.6,0.4 0.2,0.2 0.2,0.5 0.1,0.8 -0.1,1.4 -0.5,2.9 -1.1,4.3 -0.6,1.5 -1.3,2.8 -2.2,3.9 -0.9,1.1 -2,2 -3.2,2.6 -1.2,0.6 -2.5,0.8 -3.9,0.4 -0.7,-0.1 -1.3,-0.3 -1.7,-0.5 -0.4,-0.6 -0.6,-1.1 -0.7,-1.9 z"
   id="path34"
   inkscape:connector-curvature="0"
   style="fill:#231f20" />
	<path
   class="st0"
   d="m 329.6,181 c -0.3,0 -0.6,-0.1 -0.8,-0.3 -0.2,-0.2 -0.3,-0.4 -0.3,-0.7 0,-0.3 0.1,-0.5 0.3,-0.8 0.2,-0.3 0.4,-0.4 0.8,-0.5 0.3,-0.1 0.6,-0.1 0.8,-0.1 0.2,0 0.5,-0.1 0.8,-0.1 0.4,-1.9 0.9,-3.7 1.4,-5.4 0.6,-1.7 1.1,-3.3 1.7,-4.8 0.6,-1.5 1.2,-2.7 1.8,-3.8 0.6,-1.1 1.1,-1.9 1.5,-2.5 0.3,-0.4 0.6,-0.6 1,-0.8 0.4,-0.1 0.9,-0.2 1.3,-0.2 0.5,0 0.9,0 1.3,0.1 0.4,0.1 0.6,0.2 0.8,0.3 1,0.7 1.6,1.7 1.8,3 0.2,1.3 0.1,2.8 -0.3,4.6 -0.6,2.6 -1.6,4.8 -3,6.7 -1.4,1.9 -3.4,3.2 -5.8,4.2 -0.3,1 -0.5,2 -0.7,3 -0.2,1 -0.4,2 -0.4,3.1 -0.1,1 0,2 0.1,3.1 0.1,1 0.4,2 0.8,2.9 0.5,1.3 1.1,2.1 1.7,2.4 0.6,0.3 1.3,0.3 1.9,-0.1 0.7,-0.4 1.3,-0.9 2,-1.8 0.7,-0.8 1.2,-1.7 1.8,-2.7 0.5,-1 1,-1.9 1.3,-2.8 0.3,-0.9 0.6,-1.6 0.6,-2.2 0.1,-0.3 0.2,-0.5 0.4,-0.7 0.2,-0.1 0.4,-0.2 0.7,-0.1 0.2,0 0.4,0.2 0.6,0.4 0.2,0.2 0.2,0.5 0.1,0.8 l -0.3,1.4 c -0.2,0.6 -0.5,1.5 -0.9,2.6 -0.4,1.1 -1,2.1 -1.7,3.2 -0.7,1.1 -1.4,2 -2.3,2.8 -0.9,0.8 -1.9,1.2 -2.9,1.3 -1.8,0.1 -3.3,-0.2 -4.4,-1 -1.1,-0.8 -1.8,-2 -2.3,-3.4 -0.5,-1.5 -0.7,-3.2 -0.6,-5.1 0.1,-2 0.3,-4 0.6,-6.1 -0.2,0.1 -0.5,0.1 -0.7,0.1 0,0 -0.3,0 -0.5,0 z m 5.8,-3.8 c 1.1,-0.6 2,-1.4 2.8,-2.3 0.8,-0.9 1.4,-1.9 1.9,-2.8 0.5,-1 0.9,-2 1.1,-2.9 0.3,-1 0.4,-1.9 0.5,-2.7 0.1,-0.8 0.1,-1.5 0,-2 -0.1,-0.5 -0.2,-0.9 -0.4,-1 -0.2,-0.1 -0.5,0.1 -0.8,0.5 -0.3,0.5 -0.7,1.1 -1,1.9 -0.4,0.8 -0.7,1.7 -1.1,2.7 -0.4,1 -0.7,2 -1.1,3 -0.3,1 -0.6,1.9 -0.9,2.8 -0.3,0.9 -0.4,1.6 -0.6,2.1 z"
   id="path36"
   inkscape:connector-curvature="0"
   style="fill:#231f20" />
	<path
   class="st0"
   d="m 345.4,177.6 c 0.1,-0.2 0.4,-0.3 0.9,-0.4 0.4,-0.1 0.9,0 1.4,0 0.5,0.1 0.9,0.2 1.2,0.4 0.3,0.2 0.5,0.5 0.5,0.7 -0.3,0.8 -0.7,1.8 -1,3 -0.4,1.2 -0.7,2.4 -0.9,3.8 -0.3,1.3 -0.4,2.6 -0.5,3.9 -0.1,1.3 0,2.4 0.4,3.3 0.4,1.2 0.9,1.8 1.6,1.8 0.6,0 1.3,-0.5 2.1,-1.6 0.4,-0.5 0.7,-1.1 1.1,-1.7 0.3,-0.7 0.7,-1.3 0.9,-2 0.3,-0.7 0.5,-1.4 0.7,-2.1 0.2,-0.7 0.3,-1.3 0.4,-1.9 0,-0.3 0.2,-0.5 0.4,-0.6 0.2,-0.1 0.5,-0.1 0.7,-0.1 0.3,0.1 0.5,0.2 0.6,0.4 0.1,0.2 0.2,0.5 0.1,0.8 -0.1,1 -0.4,2.1 -0.8,3.3 -0.4,1.3 -0.9,2.5 -1.5,3.6 -0.6,1.1 -1.4,2.1 -2.4,2.9 -0.9,0.8 -2,1.2 -3.2,1.3 -1.2,0.1 -2.1,-0.2 -2.8,-0.8 -0.7,-0.6 -1.2,-1.4 -1.5,-2.3 -0.4,-1.2 -0.6,-2.6 -0.6,-4.1 0,-1.5 0.1,-3 0.3,-4.4 0.2,-1.4 0.5,-2.8 0.9,-4.1 0.1,-1.2 0.6,-2.3 1,-3.1 z m 2.2,-2.7 c -0.4,-0.3 -0.7,-0.7 -0.9,-1.1 -0.2,-0.5 -0.2,-1 -0.2,-1.5 0,-0.5 0.2,-1 0.4,-1.5 0.2,-0.5 0.6,-0.9 1,-1.2 0.5,-0.3 1,-0.5 1.5,-0.6 0.5,-0.1 1,-0.1 1.4,0 0.4,0.1 0.7,0.4 0.9,0.7 0.2,0.4 0.2,0.8 0,1.4 -0.1,0.2 -0.2,0.6 -0.3,1.2 -0.2,0.6 -0.4,1.1 -0.7,1.6 -0.3,0.5 -0.7,0.9 -1.2,1.2 -0.5,0.3 -1.1,0.2 -1.9,-0.2 z"
   id="path38"
   inkscape:connector-curvature="0"
   style="fill:#231f20" />
	<path
   class="st0"
   d="m 360.2,194.5 c 0.1,-1.1 0.4,-2.4 0.6,-3.7 0.3,-1.3 0.6,-2.7 0.9,-4 0.3,-1.3 0.6,-2.6 0.8,-3.9 0.2,-1.3 0.3,-2.4 0.3,-3.3 -0.1,-0.4 -0.4,-0.4 -0.8,0 -0.4,0.4 -0.9,1 -1.5,1.8 -0.6,0.9 -1.2,1.9 -1.8,3.1 -0.6,1.2 -1.2,2.5 -1.8,3.9 -0.5,1.3 -1,2.7 -1.3,4 -0.4,1.4 -0.5,2.6 -0.5,3.7 0,0.1 -0.2,0.3 -0.5,0.3 -0.3,0.1 -0.7,0.1 -1.1,0.1 -0.4,0 -0.8,0 -1.2,-0.1 -0.4,-0.1 -0.7,-0.2 -0.8,-0.3 0.1,-1.4 0.2,-2.9 0.4,-4.6 0.2,-1.6 0.4,-3.3 0.6,-4.9 0.2,-1.6 0.4,-3.3 0.6,-4.9 0.2,-1.6 0.4,-3.1 0.5,-4.5 0.1,-0.2 0.3,-0.4 0.7,-0.5 0.4,-0.1 0.9,-0.2 1.4,-0.2 0.5,0 0.9,0.1 1.3,0.2 0.4,0.1 0.6,0.3 0.6,0.6 -0.1,1.4 -0.3,2.7 -0.5,4.1 -0.2,1.3 -0.4,2.7 -0.6,4.1 0.3,-0.9 0.7,-1.9 1.1,-2.9 0.4,-1 0.9,-2 1.5,-2.9 0.5,-0.9 1.1,-1.7 1.7,-2.4 0.6,-0.7 1.2,-1.1 1.8,-1.3 0.2,-0.1 0.4,-0.1 0.7,0 0.3,0 0.6,0.1 1,0.2 0.4,0.1 0.7,0.2 1,0.3 0.3,0.1 0.6,0.2 0.8,0.3 0.3,0.1 0.6,0.5 0.6,1.2 0.1,0.6 0.1,1.4 0,2.4 -0.1,0.9 -0.2,2 -0.4,3.1 -0.2,1.1 -0.4,2.2 -0.7,3.3 -0.2,1.1 -0.4,2.2 -0.6,3.2 -0.2,1 -0.3,1.8 -0.4,2.5 0,0.3 -0.1,0.5 -0.1,0.8 0,0.2 0,0.4 0,0.6 0.1,0.2 0.2,0.3 0.3,0.4 0.2,0.1 0.5,0.1 0.9,0.1 0.7,-0.1 1.3,-0.5 2,-1.2 0.7,-0.7 1.3,-1.6 1.8,-2.6 0.5,-1 1,-2 1.3,-3 0.3,-1 0.5,-1.8 0.5,-2.4 0,-0.3 0.1,-0.5 0.3,-0.6 0.2,-0.1 0.4,-0.1 0.7,-0.1 0.3,0 0.5,0.2 0.6,0.4 0.2,0.2 0.2,0.5 0.1,0.8 -0.1,1.4 -0.5,2.9 -1.1,4.3 -0.6,1.5 -1.3,2.8 -2.2,3.9 -0.9,1.1 -2,2 -3.2,2.6 -1.2,0.6 -2.5,0.8 -3.9,0.4 -0.7,-0.1 -1.3,-0.3 -1.7,-0.5 -0.4,-0.6 -0.7,-1.1 -0.7,-1.9 z"
   id="path40"
   inkscape:connector-curvature="0"
   style="fill:#231f20" />
	<path
   class="st0"
   d="m 372.7,187.2 c -0.3,1.6 -0.4,2.9 -0.2,3.9 0.2,1.1 0.5,1.9 1.1,2.5 0.5,0.6 1.2,0.9 2,1 0.8,0.1 1.6,-0.1 2.5,-0.6 0.9,-0.4 1.7,-1.1 2.6,-2 0.9,-0.9 1.6,-2.1 2.3,-3.6 0.5,-1.1 0.8,-2.3 1.1,-3.7 0,-0.3 0.1,-0.5 0.3,-0.6 0.2,-0.1 0.4,-0.1 0.6,-0.1 0.2,0.1 0.4,0.2 0.6,0.4 0.2,0.2 0.2,0.5 0.1,0.8 -0.3,1.7 -0.7,3.3 -1.5,4.8 -0.7,1.5 -1.6,2.7 -2.7,3.8 -1.1,1 -2.3,1.8 -3.6,2.3 -1.3,0.5 -2.7,0.7 -4.1,0.5 -0.7,-0.1 -1.4,-0.2 -2.1,-0.5 -0.7,-0.2 -1.5,-0.6 -2.1,-1.2 -0.7,-0.6 -1.2,-1.5 -1.4,-2.7 -0.2,-1.2 -0.2,-2.5 0.1,-4 0.2,-1.4 0.7,-2.9 1.3,-4.4 0.6,-1.5 1.3,-2.8 2.2,-4 0.9,-1.2 1.8,-2.1 2.8,-2.8 1,-0.7 2.1,-1 3.2,-0.9 0.7,0.1 1.4,0.4 1.9,0.8 0.5,0.5 0.9,1 1.2,1.7 0.3,0.7 0.4,1.4 0.4,2.1 0,0.7 -0.1,1.4 -0.3,2.1 -0.3,0.9 -0.5,1.7 -0.9,2.4 -0.3,0.7 -0.7,1.3 -1.2,1.9 -0.4,0.6 -1,1.1 -1.6,1.5 -0.6,0.4 -1.4,0.9 -2.2,1.3 -0.3,0.1 -0.6,0.2 -0.8,0.1 -0.2,-0.1 -0.4,-0.2 -0.4,-0.4 -0.1,-0.2 0,-0.4 0.1,-0.7 0.1,-0.3 0.3,-0.5 0.7,-0.8 0.9,-0.6 1.6,-1.4 2.3,-2.4 0.6,-1 1.1,-2 1.4,-2.9 0.3,-1 0.4,-1.8 0.4,-2.6 -0.1,-0.8 -0.3,-1.3 -0.9,-1.5 -0.3,-0.1 -0.7,0.1 -1.2,0.5 -0.5,0.5 -1,1.1 -1.5,1.9 -0.5,0.8 -1,1.8 -1.5,2.8 -0.5,1.2 -0.8,2.3 -1,3.3 z"
   id="path42"
   inkscape:connector-curvature="0"
   style="fill:#231f20" />
</g>
</svg>