<?xml version="1.0" encoding="UTF-8" standalone="no"?>
<!-- Creator: CorelDRAW X7 -->

<svg
   xmlns:dc="http://purl.org/dc/elements/1.1/"
   xmlns:cc="http://creativecommons.org/ns#"
   xmlns:rdf="http://www.w3.org/1999/02/22-rdf-syntax-ns#"
   xmlns:svg="http://www.w3.org/2000/svg"
   xmlns="http://www.w3.org/2000/svg"
   xmlns:sodipodi="http://sodipodi.sourceforge.net/DTD/sodipodi-0.dtd"
   xmlns:inkscape="http://www.inkscape.org/namespaces/inkscape"
   xml:space="preserve"
   width="11.19094in"
   height="3.309237in"
   version="1.0"
   viewBox="0 0 1119095 330923.69"
   id="svg18"
   sodipodi:docname="fintechworldpost-logo-b27-svg_cropped.svg"
   style="clip-rule:evenodd;fill-rule:evenodd;image-rendering:optimizeQuality;shape-rendering:geometricPrecision;text-rendering:geometricPrecision"
   inkscape:version="0.92.3 (2405546, 2018-03-11)"><metadata
   id="metadata24"><rdf:RDF><cc:Work
       rdf:about=""><dc:format>image/svg+xml</dc:format><dc:type
         rdf:resource="http://purl.org/dc/dcmitype/StillImage" /></cc:Work></rdf:RDF></metadata><defs
   id="defs22" /><sodipodi:namedview
   pagecolor="#ffffff"
   bordercolor="#666666"
   borderopacity="1"
   objecttolerance="10"
   gridtolerance="10"
   guidetolerance="10"
   inkscape:pageopacity="0"
   inkscape:pageshadow="2"
   inkscape:window-width="640"
   inkscape:window-height="480"
   id="namedview20"
   showgrid="false"
   inkscape:zoom="0.29734114"
   inkscape:cx="537.16513"
   inkscape:cy="-15.37245"
   inkscape:window-x="0"
   inkscape:window-y="0"
   inkscape:window-maximized="0"
   inkscape:current-layer="svg18" />
 <g
   id="Layer_x0020_2"
   transform="translate(-25098,-66449.413)">
  <metadata
   id="CorelCorpID_0Corel-Layer" />
  <path
   d="M 25098,81643 V 325501 H 57985 V 204336 l 98222,893 v -25178 l -98222,2806 v -77696 l 131618,1849 V 81643 Z m 228371,80435 h -29891 v 165273 h 29891 z m 157753,163423 h 30083 V 220909 c 0,-13766 -1974,-24602 -5991,-32442 -4462,-8987 -10707,-15935 -18676,-20973 -9176,-5669 -18101,-8793 -26706,-9304 -11089,-1021 -22178,254 -33396,3760 -6630,1978 -13832,5737 -21672,11346 -7840,5481 -13895,11793 -18101,18866 0,-3506 0,-13575 0,-30212 h -30083 v 163551 h 30083 v -92992 c 128,-10964 3952,-21478 11535,-31550 7776,-10197 15552,-16955 23393,-20205 3952,-1721 8412,-2677 13449,-2931 5352,-385 10325,0 14913,1082 10072,2360 17527,6948 22436,13639 5673,7969 8604,18547 8733,31743 z M 398334,81643 v 25367 l 88722,-2613 v 221104 h 33207 V 104397 l 88722,2613 V 81643 Z m 287966,75590 c -25685,-125 -46846,8159 -63480,24860 -16702,16699 -25050,37157 -25050,61442 0,23521 8284,43279 24857,59213 16634,15934 37859,24921 63673,27023 28108,2039 52711,-3188 73744,-15680 l -8794,-14149 c -14534,9689 -32443,14149 -53733,13449 -16826,-635 -31486,-5798 -43914,-15552 -12300,-9943 -20012,-24285 -23136,-43087 -764,-5480 -1146,-10007 -1146,-13449 h 112814 32315 c -1785,-23071 -10900,-42768 -27470,-59210 -16573,-16701 -36778,-24985 -60680,-24860 z m -5609,15871 c 12938,0 24666,4398 35120,13067 10836,8604 18484,20397 22946,35310 H 630467 c 2231,-13703 7266,-24667 15106,-32825 7966,-8605 17720,-13639 29319,-15167 2614,-257 4524,-385 5799,-385 z m 208805,-14532 c -25685,0 -46975,8287 -63863,24860 -16826,16506 -25049,37092 -24666,61759 0,11475 1974,22182 5990,32126 4206,9814 9180,17908 14913,24281 5991,6248 12875,11665 20715,16256 7841,4459 15424,7840 22818,10068 7712,2360 15106,3763 22182,4145 16188,1082 30784,64 43722,-2995 13196,-3378 23775,-7841 31743,-13450 l -6883,-10643 c -16063,10197 -34546,14339 -55515,12493 -18869,-1721 -34546,-8926 -46849,-21483 -12299,-12938 -19694,-28808 -22053,-47609 -2357,-19441 956,-36396 9943,-50991 8926,-14660 20972,-23008 36013,-24985 17909,-2296 32697,3188 44233,16380 h 34739 c -7969,-9304 -17913,-16698 -29830,-22178 -11729,-5356 -24157,-8034 -37352,-8034 z m 224421,166929 h 30276 V 220909 c 0,-13766 -2039,-24602 -5991,-32442 -4463,-8987 -10708,-15935 -18676,-20973 -9176,-5669 -18037,-8793 -26513,-9304 -11218,-1021 -22372,254 -33400,3760 -6756,1978 -14085,5737 -22054,11346 -7837,5481 -13892,11793 -18102,18866 129,-3506 129,-23518 0,-60103 0,-36713 -60,-56282 -189,-58638 h -30083 c 0,55643 0,139648 0,252080 h 30272 v -92992 c 129,-10707 3953,-21161 11540,-31361 7840,-10197 15677,-17016 23517,-20394 4017,-1721 8480,-2677 13449,-2931 5481,-385 10518,0 15171,1082 10068,2360 17526,6948 22371,13639 5609,7712 8412,18294 8412,31743 z"
   id="path3"
   inkscape:connector-curvature="0"
   style="fill:#004963" />
 </g>
 <g
   id="Layer_x0020_3"
   transform="translate(-25098,-66449.413)">
  <metadata
   id="CorelCorpID_1Corel-Layer" />
  <path
   d="m 743467,396839 15444,-46802 h -12168 l -9027,34431 -9159,-34431 h -11633 l -8960,34431 -9158,-34431 h -12706 l 15312,46802 h 12303 l 8824,-32363 8693,32363 z m 41721,-47205 c -14444,0 -25273,10096 -25273,23738 0,13706 10829,24001 25273,24001 14507,0 25340,-10363 25340,-24001 0,-13575 -10833,-23738 -25340,-23738 z m 135,9964 c 7218,0 12969,5950 12969,13838 0,7891 -5751,13977 -12969,13977 -7158,0 -13240,-6086 -13240,-13977 0,-7888 6018,-13838 13240,-13838 z m 59707,37241 h 13507 l -9832,-15445 c 5484,-2741 8493,-7890 8493,-15044 0,-10431 -7087,-16313 -19457,-16313 h -20928 v 46802 h 11900 v -13172 h 9028 334 z m -16317,-22534 v -14910 h 9028 c 5149,0 8158,2475 8158,7357 0,4946 -3009,7553 -8158,7553 z m 48408,12570 v -36838 h -11901 v 46802 h 31761 v -9964 z m 25543,-36838 v 46802 h 19657 c 15045,0 25343,-9562 25343,-23403 0,-13906 -10163,-23399 -24873,-23399 z m 11901,9493 h 7959 c 7552,0 13036,5683 13036,13974 0,8225 -5213,13841 -12502,13841 h -8493 z m 60109,-9493 v 46802 h 5349 v -14775 h 12235 c 11570,0 18254,-5954 18254,-16316 0,-9961 -6684,-15711 -18254,-15711 z m 5349,5149 h 12036 c 8425,0 13304,3607 13304,10697 0,7286 -4879,11032 -13304,11032 h -12036 z m 59507,-5285 c -13706,0 -24539,10299 -24539,23535 0,13172 10833,23670 24539,23670 13639,0 24471,-10498 24471,-23670 0,-13169 -10832,-23535 -24471,-23535 z m 0,5082 c 10430,0 18987,8158 18987,18453 0,10298 -8557,18521 -18987,18521 -10430,0 -19123,-8223 -19123,-18521 0,-10295 8693,-18453 19123,-18453 z m 48141,-5149 c -9697,0 -16181,4750 -16181,12103 0,16783 26344,10231 26276,22531 0,4480 -4212,7221 -10964,7221 -5284,0 -11235,-2407 -15579,-6619 l -2408,4814 c 4413,4212 11100,7154 17919,7154 10028,0 16915,-5014 16915,-12837 68,-16982 -26277,-10697 -26277,-22734 0,-3942 3946,-6217 9964,-6217 3743,0 8692,1139 12905,3946 l 2272,-5015 c -3878,-2606 -9426,-4347 -14842,-4347 z m 56495,5352 v -5149 h -35902 v 5149 h 15241 v 41653 h 5352 v -41653 z"
   id="path7"
   inkscape:connector-curvature="0"
   style="fill:#e87021" />
 </g>
 <g
   id="Layer_x0020_4"
   transform="translate(-25098,-66449.413)">
  <metadata
   id="CorelCorpID_2Corel-Layer" />
  <path
   d="m 27776,369815 h 645950 v 7374 H 27776 Z"
   id="path11"
   inkscape:connector-curvature="0"
   style="fill:#004963" />
 </g>
 <g
   id="Layer_x0020_5"
   transform="translate(-25098,-66449.413)">
  <metadata
   id="CorelCorpID_3Corel-Layer" />
  <path
   d="m 237900,66449 9568,26838 27233,1274 -21320,17862 7262,27625 -22743,-15799 -22744,15799 7263,-27625 -21321,-17862 27233,-1274 z"
   id="path15"
   inkscape:connector-curvature="0"
   style="fill:#e87021" />
 </g>
</svg>