<?xml version="1.0" encoding="UTF-8" standalone="no"?>
<!-- Generator: Adobe Illustrator 19.0.0, SVG Export Plug-In . SVG Version: 6.00 Build 0)  -->

<svg
   xmlns:dc="http://purl.org/dc/elements/1.1/"
   xmlns:cc="http://creativecommons.org/ns#"
   xmlns:rdf="http://www.w3.org/1999/02/22-rdf-syntax-ns#"
   xmlns:svg="http://www.w3.org/2000/svg"
   xmlns="http://www.w3.org/2000/svg"
   xmlns:sodipodi="http://sodipodi.sourceforge.net/DTD/sodipodi-0.dtd"
   xmlns:inkscape="http://www.inkscape.org/namespaces/inkscape"
   version="1.1"
   id="Layer_1"
   x="0px"
   y="0px"
   viewBox="0 0 400 107.8"
   xml:space="preserve"
   sodipodi:docname="CanadianNewsOnline-Logo-B29-SVG_cropped.svg"
   width="400"
   height="107.8"
   inkscape:version="0.92.3 (2405546, 2018-03-11)"><metadata
   id="metadata37"><rdf:RDF><cc:Work
       rdf:about=""><dc:format>image/svg+xml</dc:format><dc:type
         rdf:resource="http://purl.org/dc/dcmitype/StillImage" /></cc:Work></rdf:RDF></metadata><defs
   id="defs35" /><sodipodi:namedview
   pagecolor="#ffffff"
   bordercolor="#666666"
   borderopacity="1"
   objecttolerance="10"
   gridtolerance="10"
   guidetolerance="10"
   inkscape:pageopacity="0"
   inkscape:pageshadow="2"
   inkscape:window-width="640"
   inkscape:window-height="480"
   id="namedview33"
   showgrid="false"
   inkscape:zoom="0.835"
   inkscape:cx="200"
   inkscape:cy="53.900002"
   inkscape:window-x="0"
   inkscape:window-y="0"
   inkscape:window-maximized="0"
   inkscape:current-layer="Layer_1" />
<style
   type="text/css"
   id="style2">
	.st0{fill:#D30000;}
	.st1{fill:#FFFFFF;}
</style>
<g
   id="XMLID_52_"
   transform="translate(0,-58.599998)">
	<g
   id="XMLID_2_">
		<rect
   id="XMLID_1_"
   y="58.599998"
   class="st0"
   width="107.8"
   height="107.8"
   x="0"
   style="fill:#d30000" />
		<g
   id="XMLID_4_">
			<path
   id="XMLID_16_"
   class="st1"
   d="m 29.6,140.1 c 0.5,-2 1,-4 1.7,-5.9 0.7,-2 0.3,-3.4 -1.3,-4.8 -6,-5.2 -12,-10.5 -18,-15.7 -0.7,-0.6 -0.6,-0.8 0.2,-1.1 0.8,-0.3 1.5,-0.6 2.2,-1 1.2,-0.6 1.5,-1.3 1.1,-2.7 -1.2,-4 -2.4,-8 -3.6,-12 -0.1,-0.2 -0.1,-0.4 -0.2,-0.7 2.6,0.6 5.2,1.1 7.7,1.6 0.9,0.2 1.8,0.3 2.7,0.6 1,0.3 1.7,-0.1 2.2,-1 0.9,-1.8 1.7,-3.6 2.5,-5.4 0.1,-0.2 0.2,-0.5 0.4,-0.8 0.9,1 1.7,1.9 2.5,2.8 2.3,2.6 4.7,5.3 7,7.9 0.4,0.5 0.9,0.9 1.6,1 1.3,0.3 2.4,-0.7 2.2,-2.1 -0.2,-2 -0.7,-4 -1.1,-6 -1.2,-5.6 -2.5,-11.1 -3.7,-16.7 -0.1,-0.3 -0.1,-0.6 -0.1,-1 2.5,1.4 4.8,2.7 7.2,4 1.6,0.9 2.3,0.8 3.2,-0.9 2.5,-4.4 4.8,-8.9 7.2,-13.4 0.2,-0.3 0.3,-0.6 0.5,-1 0.4,0.2 0.5,0.6 0.7,0.9 2.3,4.4 4.6,8.9 7.1,13.2 1.1,1.9 1.6,2.1 3.5,1 2.3,-1.3 4.6,-2.5 7.1,-3.9 -0.6,2.6 -1.2,5.1 -1.7,7.6 -1.1,5.1 -2.3,10.3 -3.2,15.5 0,0.1 0,0.3 -0.1,0.4 -0.2,1 0,1.8 1,2.3 0.8,0.4 1.8,0.1 2.5,-0.7 1.3,-1.5 2.6,-2.9 3.9,-4.4 1.7,-2 3.4,-3.9 5.2,-5.9 0.2,-0.2 0.4,-0.5 0.6,-0.8 1,2 1.8,3.9 2.7,5.8 0.8,1.7 1.1,1.8 2.9,1.4 2.9,-0.6 5.9,-1.3 8.8,-1.9 0.3,-0.1 0.7,-0.1 1.1,-0.2 -1,3.3 -1.9,6.6 -2.9,9.8 -0.3,1 -0.6,2 -0.9,3 -0.4,1.2 -0.1,1.9 1,2.5 1,0.5 2.1,0.9 3.2,1.4 -2.3,2 -4.4,3.9 -6.6,5.8 -4.1,3.6 -8.1,7.2 -12.2,10.7 -1.5,1.3 -1.9,2.6 -1.3,4.5 0.6,1.8 1,3.6 1.6,5.4 0.2,0.8 0.1,0.9 -0.7,0.8 -5.1,-1.1 -10.2,-2.2 -15.2,-3.3 -1,-0.2 -1.9,-0.4 -2.9,-0.6 -2.2,-0.4 -3.6,0.8 -3.4,3 0.3,6.2 0.6,12.4 1,18.6 0.1,1 -0.3,1.3 -1.2,1.2 -1.1,-0.1 -2.2,-0.1 -3.2,0 -0.7,0 -0.9,-0.2 -0.9,-0.9 0.3,-4.6 0.5,-9.1 0.7,-13.7 0.1,-1.7 0.2,-3.4 0.3,-5.1 0.1,-2.4 -1.2,-3.6 -3.6,-3.1 -3.4,0.7 -6.9,1.5 -10.3,2.2 -2.6,0.6 -5.1,1.1 -7.7,1.7 -0.4,0.2 -0.7,0.3 -1,0.1 z"
   inkscape:connector-curvature="0"
   style="fill:#ffffff" />
		</g>
	</g>
	<g
   id="XMLID_51_">
		<g
   id="XMLID_7_">
			<path
   id="XMLID_8_"
   d="m 144.3,123 c -2.3,3.1 -6,4.7 -11,4.7 -5,0 -8.7,-1.7 -11.2,-5 -2.5,-3.3 -3.7,-8.1 -3.7,-14.4 V 78.8 c 0,-10 2.6,-16.3 7.9,-18.8 1.9,-0.9 4.3,-1.4 7.1,-1.4 9.5,0 14.2,6 14.2,17.9 v 9.3 h -9.9 v -8.6 c 0,-3.5 -0.3,-6 -0.9,-7.5 -0.6,-1.5 -1.7,-2.2 -3.5,-2.2 -1.7,0 -2.9,0.8 -3.6,2.4 -0.7,1.6 -1,4 -1,7.3 v 31.5 c 0,3.6 0.3,6.2 1,7.8 0.6,1.6 1.8,2.3 3.5,2.3 1.7,0 2.8,-0.8 3.5,-2.4 0.6,-1.6 1,-4.2 1,-7.9 v -9.7 h 10.1 v 9.5 c 0,6.7 -1.2,11.5 -3.5,14.7 z"
   inkscape:connector-curvature="0" />
			<path
   id="XMLID_10_"
   d="m 153.1,126.9 9.6,-67.5 h 13.6 l 10.2,67.5 h -9.6 l -1.6,-12 h -10.9 l -1.5,12 z m 21.1,-20.3 -4.5,-33.9 h -0.2 l -4.1,33.9 z"
   inkscape:connector-curvature="0" />
			<path
   id="XMLID_13_"
   d="M 193.6,126.9 V 59.4 h 8.1 L 216,99.9 215.3,81.5 V 59.4 h 9.2 v 67.5 h -7.3 L 202.5,85 l 0.6,17.7 v 24.2 z"
   inkscape:connector-curvature="0" />
			<path
   id="XMLID_15_"
   d="m 231.5,126.9 9.6,-67.5 h 13.6 l 10.2,67.5 h -9.6 l -1.6,-12 h -10.9 l -1.5,12 z m 21.2,-20.3 -4.5,-33.9 H 248 l -4.1,33.9 z"
   inkscape:connector-curvature="0" />
			<path
   id="XMLID_19_"
   d="M 271.9,126.9 V 59.4 H 287 c 5,0 8.6,1.5 10.8,4.4 2.2,2.9 3.4,7.2 3.4,12.9 v 30.5 c 0,6.8 -1.1,11.8 -3.4,15 -2.2,3.2 -6,4.8 -11.2,4.8 h -14.7 z m 10.3,-8 h 3.4 c 1.9,0 3.3,-0.6 4.1,-1.8 0.9,-1.2 1.3,-3.5 1.3,-6.7 V 77.1 c 0,-3.5 -0.4,-6 -1.3,-7.5 -0.9,-1.5 -2.3,-2.2 -4.4,-2.2 h -3 v 51.5 z"
   inkscape:connector-curvature="0" />
			<path
   id="XMLID_22_"
   d="M 310.9,126.9 V 59.4 h 10.3 v 67.5 z"
   inkscape:connector-curvature="0" />
			<path
   id="XMLID_24_"
   d="m 328.6,126.9 9.6,-67.5 h 13.6 l 10.2,67.5 h -9.6 l -1.6,-12 H 340 l -1.5,12 z m 21.2,-20.3 -4.5,-33.9 h -0.2 l -4.1,33.9 z"
   inkscape:connector-curvature="0" />
			<path
   id="XMLID_27_"
   d="M 369.1,126.9 V 59.4 h 8.1 l 14.3,40.5 -0.7,-18.4 V 59.4 h 9.2 v 67.5 h -7.3 L 378,85 l 0.6,17.7 v 24.2 z"
   inkscape:connector-curvature="0" />
		</g>
		<g
   id="XMLID_50_">
			<rect
   id="XMLID_6_"
   x="118.4"
   y="131.8"
   class="st0"
   width="281.60001"
   height="34.599998"
   style="fill:#d30000" />
			<g
   id="XMLID_3_">
				<path
   id="XMLID_29_"
   class="st1"
   d="m 124.8,136.2 h 5.5 l 12.4,16.7 v -16.7 h 5.6 V 162 h -5.6 L 130.3,145.3 V 162 h -5.5 z"
   inkscape:connector-curvature="0"
   style="fill:#ffffff" />
				<path
   id="XMLID_31_"
   class="st1"
   d="m 159.2,141.2 v 5.1 h 13 v 5 h -13 v 5.7 h 14.3 v 5 h -19.9 v -25.8 h 19.9 v 5 z"
   inkscape:connector-curvature="0"
   style="fill:#ffffff" />
				<path
   id="XMLID_33_"
   class="st1"
   d="m 175.9,136.2 h 6 l 4.8,17.3 5.7,-17.3 h 6 l 5.7,17.3 4.8,-17.3 h 6 l -7.8,25.8 h -5.6 l -6.1,-17.7 -6.1,17.7 h -5.6 z"
   inkscape:connector-curvature="0"
   style="fill:#ffffff" />
				<path
   id="XMLID_35_"
   class="st1"
   d="m 216.5,158.2 3.2,-3.8 c 2.4,2.1 5.2,3.4 8.5,3.4 2.8,0 4.2,-1.3 4.2,-2.9 0,-1.8 -1.5,-2.4 -5.4,-3.3 -5.5,-1.2 -9.3,-2.8 -9.3,-7.8 0,-4.8 3.9,-8 9.5,-8 4.2,0 7.5,1.3 10.1,3.6 l -2.9,4 c -2.3,-1.8 -4.9,-2.9 -7.4,-2.9 -2.4,0 -3.8,1.2 -3.8,2.8 0,1.9 1.5,2.5 5.5,3.4 5.6,1.2 9.2,2.9 9.2,7.7 0,4.9 -3.7,8.2 -10,8.2 -4.4,-0.1 -8.4,-1.7 -11.4,-4.4 z"
   inkscape:connector-curvature="0"
   style="fill:#ffffff" />
				<path
   id="XMLID_37_"
   class="st1"
   d="m 251.5,149.1 c 0,-7.3 6.3,-13.3 13.7,-13.3 7.5,0 13.7,6.1 13.7,13.3 0,7.2 -6.2,13.4 -13.7,13.4 -7.4,0 -13.7,-6.2 -13.7,-13.4 z m 21.8,0 c 0,-4.5 -3.7,-8.3 -8,-8.3 -4.3,0 -8,3.8 -8,8.3 0,4.5 3.7,8.3 8,8.3 4.3,0 8,-3.8 8,-8.3 z"
   inkscape:connector-curvature="0"
   style="fill:#ffffff" />
				<path
   id="XMLID_40_"
   class="st1"
   d="m 283.3,136.2 h 5.5 l 12.4,16.7 v -16.7 h 5.6 V 162 h -5.6 L 288.8,145.3 V 162 h -5.5 z"
   inkscape:connector-curvature="0"
   style="fill:#ffffff" />
				<path
   id="XMLID_42_"
   class="st1"
   d="m 330.3,157 v 5 h -18.4 v -25.8 h 5.6 V 157 Z"
   inkscape:connector-curvature="0"
   style="fill:#ffffff" />
				<path
   id="XMLID_44_"
   class="st1"
   d="m 334,136.2 h 5.6 V 162 H 334 Z"
   inkscape:connector-curvature="0"
   style="fill:#ffffff" />
				<path
   id="XMLID_46_"
   class="st1"
   d="m 344.9,136.2 h 5.5 l 12.4,16.7 v -16.7 h 5.6 V 162 h -5.6 L 350.4,145.3 V 162 h -5.5 z"
   inkscape:connector-curvature="0"
   style="fill:#ffffff" />
				<path
   id="XMLID_48_"
   class="st1"
   d="m 379.4,141.2 v 5.1 h 13 v 5 h -13 v 5.7 h 14.3 v 5 h -19.9 v -25.8 h 19.9 v 5 z"
   inkscape:connector-curvature="0"
   style="fill:#ffffff" />
			</g>
		</g>
	</g>
</g>
</svg>