<?xml version="1.0" encoding="utf-8"?>
<!-- Generator: Adobe Illustrator 28.2.0, SVG Export Plug-In . SVG Version: 6.00 Build 0)  -->
<svg version="1.1" id="Layer_1" xmlns="http://www.w3.org/2000/svg" xmlns:xlink="http://www.w3.org/1999/xlink" x="0px" y="0px"
	 viewBox="0 0 999 1080" style="enable-background:new 0 0 999 1080;" xml:space="preserve">
<style type="text/css">
	.st0{fill:#FFFFFF;}
	.st1{fill:#6A797D;}
	.st2{fill:#17313B;}
	.st3{fill:#FFFFFF;stroke:#17313B;stroke-width:2;stroke-miterlimit:10;}
	.st4{fill:none;stroke:#17313B;stroke-miterlimit:10;}
	.st5{fill:#FF3D2E;}
	.st6{enable-background:new    ;}
</style>
<polygon class="st0" points="996.3,272.3 996.3,807.7 500.9,1075.4 5.4,807.7 5.4,272.3 500.9,4.6 "/>
<path class="st1" d="M499.5,1080l-1.9-1L0,810.1V270l2.1-1.1L499.5,0l1.9,1L999,270v540.3L499.5,1080z M8.1,805.2l491.4,265.5
	l491.4-265.5V274.8L499.5,9.3L8.1,274.8V805.2z"/>
<polygon class="st1" points="972,286.9 972,793.1 499.5,1046.2 27,793.1 27,286.9 499.5,33.8 "/>
<rect x="27" y="391.5" class="st2" width="945" height="297"/>
<polygon class="st3" points="926.1,307.1 926.1,772.9 500.9,1005.8 75.6,772.9 75.6,307.1 500.9,74.2 "/>
<rect x="40.5" y="418.5" class="st2" width="918" height="243"/>
<line class="st4" x1="141.8" y1="688.5" x2="857.2" y2="688.5"/>
<line class="st4" x1="141.8" y1="391.5" x2="857.2" y2="391.5"/>
<rect x="378.2" y="475.2" class="st0" width="24.3" height="126.9"/>
<path class="st0" d="M480.8,564.3c0,19.8-18.7,21.3-24,21.3c-13.1,0-16.5-11.6-16.5-18.5v-48.7h-18.9V567c0,12.3,3.9,22.4,11,29.1
	c7.1,6.2,16.2,9.5,25.7,9.2c8-0.2,15.9-2.6,22.7-6.9v3.6h21.6v-83.7h-21.6L480.8,564.3L480.8,564.3z"/>
<polygon class="st0" points="548.3,488.7 524,488.7 524,518.4 510.5,518.4 510.5,534.6 524,534.6 524,602.1 548.3,602.1 
	548.3,534.6 564.5,534.6 564.5,518.4 548.3,518.4 "/>
<path class="st0" d="M634.5,578.8c-5.1,4.2-11.5,6.4-18.1,6.3c-15.4,0-26.7-10.6-26.7-25.1s10.8-24.6,26.7-24.6
	c6.6-0.1,13.1,2.1,18.2,6.2l3.3,2.7l14.9-13.9l-3.7-3.1c-9.2-7.6-20.9-11.7-32.9-11.6c-27.6,0-47.7,18.7-47.7,44.3
	s20.5,44.8,47.7,44.8c12,0.2,23.8-4,33-11.7l3.6-3.2L637.7,576L634.5,578.8L634.5,578.8z"/>
<path class="st0" d="M732.3,526.3c-7.2-6.2-16.5-9.5-26-9.2c-8.2-0.1-16.2,2.3-23,6.9v-48.7h-21.6v126.9h21.6v-44
	c0-19.8,17.4-21.4,22.6-21.4c13.1,0,15.2,11.6,15.2,18.5v46.8h21.6v-46.7C742.7,543.1,739.6,533,732.3,526.3L732.3,526.3z"/>
<ellipse class="st5" cx="615.5" cy="560.3" rx="16" ry="15"/>
<path class="st0" d="M351.6,572.6c-8.6,8.1-20,12.6-31.8,12.5c-24.6,0-42.5-18.1-42.5-42.9s17.9-43,42.5-43
	c11.8-0.1,23.1,4.4,31.7,12.4l3.4,3.2l14.8-13.8l-3.2-3.2c-12.6-11.9-29.3-18.4-46.6-18.2c-36.3,0-63.5,27-63.5,62.8
	s27.4,62.5,63.5,62.5c17.4,0.2,34.1-6.4,46.7-18.3l3.2-3.1l-14.7-14L351.6,572.6L351.6,572.6z"/>
<g class="st6">
	<path class="st2" d="M456.8,180v-36.6h-13.7v-4.9H476v4.9h-13.7V180H456.8z"/>
	<path class="st2" d="M484.8,159.8c0-6.9,1.9-12.3,5.6-16.2s8.5-5.8,14.3-5.8c3.8,0,7.3,0.9,10.4,2.7c3.1,1.8,5.4,4.4,7,7.7
		s2.4,7,2.4,11.1c0,4.2-0.8,8-2.5,11.3s-4.1,5.8-7.2,7.5c-3.1,1.7-6.5,2.6-10.1,2.6c-3.9,0-7.4-0.9-10.5-2.8c-3.1-1.9-5.4-4.5-7-7.7
		S484.8,163.4,484.8,159.8z M490.4,159.9c0,5,1.3,8.9,4,11.8c2.7,2.9,6.1,4.3,10.1,4.3c4.1,0,7.5-1.5,10.2-4.4s4-7,4-12.4
		c0-3.4-0.6-6.3-1.7-8.8c-1.1-2.5-2.8-4.5-5-5.9s-4.7-2.1-7.4-2.1c-3.9,0-7.2,1.3-10,4C491.8,149.2,490.4,153.6,490.4,159.9z"/>
	<path class="st2" d="M537.3,180v-41.5H553c2.8,0,4.9,0.1,6.3,0.4c2,0.3,3.7,1,5.1,1.9c1.4,1,2.5,2.3,3.3,4s1.3,3.6,1.3,5.7
		c0,3.5-1.1,6.5-3.4,9c-2.2,2.4-6.3,3.7-12.2,3.7h-10.6V180H537.3z M542.8,158.2h10.7c3.5,0,6.1-0.7,7.6-2s2.2-3.2,2.2-5.6
		c0-1.7-0.4-3.2-1.3-4.5c-0.9-1.2-2-2.1-3.5-2.4c-0.9-0.2-2.6-0.4-5.1-0.4h-10.6L542.8,158.2L542.8,158.2z"/>
</g>
<g class="st6">
	<path class="st2" d="M342.1,256.7l5.2-0.5c0.2,2.1,0.8,3.8,1.7,5.1c0.9,1.3,2.3,2.4,4.2,3.2c1.9,0.8,4,1.2,6.4,1.2
		c2.1,0,3.9-0.3,5.6-0.9c1.6-0.6,2.8-1.5,3.6-2.6c0.8-1.1,1.2-2.3,1.2-3.6c0-1.3-0.4-2.4-1.1-3.4c-0.8-1-2-1.8-3.7-2.5
		c-1.1-0.4-3.6-1.1-7.4-2s-6.5-1.8-8-2.6c-2-1-3.5-2.3-4.4-3.9c-1-1.5-1.5-3.3-1.5-5.2c0-2.1,0.6-4.1,1.8-5.9
		c1.2-1.8,2.9-3.2,5.2-4.1c2.3-0.9,4.8-1.4,7.6-1.4c3.1,0,5.8,0.5,8.1,1.5c2.4,1,4.2,2.4,5.4,4.4c1.3,1.9,1.9,4.1,2,6.5l-5.3,0.4
		c-0.3-2.6-1.2-4.6-2.9-5.9c-1.6-1.3-4-2-7.2-2c-3.3,0-5.7,0.6-7.3,1.8c-1.5,1.2-2.3,2.7-2.3,4.4c0,1.5,0.5,2.7,1.6,3.7
		s3.8,1.9,8.3,3c4.5,1,7.5,1.9,9.2,2.6c2.4,1.1,4.2,2.5,5.4,4.2c1.2,1.7,1.7,3.7,1.7,5.9c0,2.2-0.6,4.3-1.9,6.2
		c-1.3,2-3.1,3.5-5.5,4.6s-5,1.6-8,1.6c-3.8,0-6.9-0.5-9.4-1.6s-4.5-2.7-6-4.9C343,261.9,342.2,259.4,342.1,256.7z"/>
	<path class="st2" d="M386.8,249.8c0-6.9,1.9-12.3,5.6-16.2s8.5-5.8,14.3-5.8c3.8,0,7.3,0.9,10.4,2.7s5.4,4.4,7,7.7s2.4,7,2.4,11.1
		c0,4.2-0.8,8-2.5,11.3s-4.1,5.8-7.2,7.5s-6.5,2.6-10.1,2.6c-3.9,0-7.4-0.9-10.5-2.8s-5.4-4.5-7-7.7S386.8,253.4,386.8,249.8z
		 M392.5,249.9c0,5,1.3,8.9,4,11.8s6.1,4.3,10.1,4.3c4.1,0,7.5-1.5,10.2-4.4s4-7,4-12.4c0-3.4-0.6-6.3-1.7-8.8s-2.8-4.5-5-5.9
		s-4.7-2.1-7.4-2.1c-3.9,0-7.2,1.3-10,4C393.9,239.2,392.5,243.6,392.5,249.9z"/>
	<path class="st2" d="M439.7,270v-41.5h28v4.9h-22.5v12.9h19.5v4.9h-19.5V270H439.7z"/>
	<path class="st2" d="M491.2,270v-36.6h-13.7v-4.9h32.9v4.9h-13.7V270H491.2z"/>
	<path class="st2" d="M529.1,270l-11-41.5h5.6l6.3,27.2c0.7,2.9,1.3,5.7,1.8,8.5c1.1-4.4,1.7-7,1.9-7.7l7.9-28h6.6l5.9,21
		c1.5,5.2,2.6,10.1,3.2,14.7c0.5-2.6,1.2-5.6,2.1-9l6.5-26.7h5.5L560.1,270h-5.3l-8.8-31.6c-0.7-2.6-1.2-4.3-1.3-4.9
		c-0.4,1.9-0.8,3.5-1.2,4.9l-8.8,31.6H529.1z"/>
	<path class="st2" d="M575.7,270l15.9-41.5h5.9l17,41.5h-6.3l-4.8-12.6H586l-4.6,12.6H575.7z M587.7,253h14.1l-4.3-11.5
		c-1.3-3.5-2.3-6.4-2.9-8.6c-0.5,2.7-1.3,5.3-2.2,7.9L587.7,253z"/>
	<path class="st2" d="M624.8,270v-41.5h18.4c3.7,0,6.5,0.4,8.4,1.1c1.9,0.7,3.5,2.1,4.6,4s1.7,4,1.7,6.3c0,2.9-1,5.4-2.9,7.4
		s-4.9,3.3-8.8,3.9c1.5,0.7,2.6,1.4,3.3,2.1c1.6,1.5,3.1,3.3,4.6,5.5l7.2,11.3h-6.9l-5.5-8.6c-1.6-2.5-2.9-4.4-4-5.7s-2-2.2-2.8-2.8
		c-0.8-0.5-1.7-0.9-2.5-1.1c-0.6-0.1-1.6-0.2-3.1-0.2h-6.4V270H624.8z M630.3,246.8h11.8c2.5,0,4.5-0.3,5.9-0.8s2.5-1.4,3.2-2.5
		s1.1-2.4,1.1-3.7c0-2-0.7-3.6-2.1-4.8c-1.4-1.3-3.7-1.9-6.8-1.9h-13.1L630.3,246.8L630.3,246.8z"/>
	<path class="st2" d="M672.5,270v-41.5h30v4.9H678v12.7h23v4.9h-23v14.1h25.5v4.9L672.5,270L672.5,270z"/>
</g>
<g class="st6">
	<path class="st2" d="M313.7,360v-41.5H328c3.2,0,5.7,0.2,7.4,0.6c2.4,0.5,4.4,1.5,6.1,3c2.2,1.9,3.8,4.2,4.9,7.1s1.6,6.2,1.6,9.9
		c0,3.2-0.4,5.9-1.1,8.4s-1.7,4.5-2.8,6c-1.2,1.6-2.4,2.9-3.8,3.8s-3,1.6-5,2.1c-1.9,0.5-4.2,0.7-6.7,0.7h-14.9V360z M319.2,355.1
		h8.9c2.7,0,4.9-0.3,6.4-0.8s2.8-1.2,3.7-2.2c1.3-1.3,2.3-3.1,3-5.3c0.7-2.2,1.1-4.9,1.1-8c0-4.3-0.7-7.7-2.1-10s-3.2-3.9-5.2-4.7
		c-1.5-0.6-3.8-0.8-7.1-0.8h-8.7L319.2,355.1L319.2,355.1z"/>
	<path class="st2" d="M361.5,360v-41.5h30v4.9H367v12.7h23v4.9h-23v14.1h25.5v4.9H361.5z"/>
	<path class="st2" d="M417.8,360l-16.1-41.5h5.9l10.8,30.2c0.9,2.4,1.6,4.7,2.2,6.8c0.6-2.3,1.4-4.5,2.2-6.8l11.2-30.2h5.6
		L423.4,360H417.8z"/>
	<path class="st2" d="M450.5,360v-41.5h30v4.9H456v12.7h23v4.9h-23v14.1h25.5v4.9H450.5z"/>
	<path class="st2" d="M494.6,360v-41.5h5.5v36.6h20.4v4.9H494.6z"/>
	<path class="st2" d="M531.2,339.8c0-6.9,1.9-12.3,5.6-16.2c3.7-3.9,8.5-5.8,14.3-5.8c3.8,0,7.3,0.9,10.4,2.7s5.4,4.4,7,7.7
		c1.6,3.3,2.4,7,2.4,11.1c0,4.2-0.8,8-2.5,11.3s-4.1,5.8-7.2,7.5c-3.1,1.7-6.5,2.6-10.1,2.6c-3.9,0-7.4-0.9-10.5-2.8s-5.4-4.5-7-7.7
		S531.2,343.4,531.2,339.8z M536.9,339.9c0,5,1.3,8.9,4,11.8S547,356,551,356c4.1,0,7.5-1.5,10.2-4.4s4-7,4-12.4
		c0-3.4-0.6-6.3-1.7-8.8c-1.1-2.5-2.8-4.5-5-5.9s-4.7-2.1-7.4-2.1c-3.9,0-7.2,1.3-10,4C538.3,329.2,536.9,333.6,536.9,339.9z"/>
	<path class="st2" d="M583.8,360v-41.5h15.7c2.8,0,4.9,0.1,6.3,0.4c2,0.3,3.7,1,5.1,1.9c1.4,1,2.5,2.3,3.3,4s1.3,3.6,1.3,5.7
		c0,3.5-1.1,6.5-3.4,9c-2.2,2.4-6.3,3.7-12.2,3.7h-10.6V360H583.8z M589.3,338.2H600c3.5,0,6.1-0.7,7.6-2s2.2-3.2,2.2-5.6
		c0-1.7-0.4-3.2-1.3-4.5c-0.9-1.2-2-2.1-3.5-2.4c-0.9-0.2-2.6-0.4-5.1-0.4h-10.6L589.3,338.2L589.3,338.2z"/>
	<path class="st2" d="M628.4,360v-41.5h30v4.9h-24.5v12.7h23v4.9h-23v14.1h25.5v4.9H628.4z"/>
	<path class="st2" d="M672.9,360v-41.5h18.4c3.7,0,6.5,0.4,8.4,1.1s3.5,2.1,4.6,4s1.7,4,1.7,6.3c0,2.9-1,5.4-2.9,7.4
		s-4.9,3.3-8.8,3.9c1.5,0.7,2.6,1.4,3.3,2.1c1.6,1.5,3.1,3.3,4.6,5.5l7.2,11.3h-6.9l-5.5-8.6c-1.6-2.5-2.9-4.4-4-5.7s-2-2.2-2.8-2.8
		c-0.8-0.5-1.7-0.9-2.5-1.1c-0.6-0.1-1.6-0.2-3.1-0.2h-6.4V360H672.9z M678.4,336.8h11.8c2.5,0,4.5-0.3,5.9-0.8s2.5-1.4,3.2-2.5
		s1.1-2.4,1.1-3.7c0-2-0.7-3.6-2.1-4.8c-1.4-1.3-3.7-1.9-6.8-1.9h-13.1L678.4,336.8L678.4,336.8z"/>
	<path class="st2" d="M718.6,346.7l5.2-0.5c0.2,2.1,0.8,3.8,1.7,5.1c0.9,1.3,2.3,2.4,4.2,3.2c1.9,0.8,4,1.2,6.4,1.2
		c2.1,0,3.9-0.3,5.6-0.9s2.8-1.5,3.6-2.6s1.2-2.3,1.2-3.6c0-1.3-0.4-2.4-1.1-3.4c-0.8-1-2-1.8-3.7-2.5c-1.1-0.4-3.6-1.1-7.4-2
		c-3.8-0.9-6.5-1.8-8-2.6c-2-1-3.5-2.3-4.4-3.9c-1-1.5-1.5-3.3-1.5-5.2c0-2.1,0.6-4.1,1.8-5.9s2.9-3.2,5.2-4.1s4.8-1.4,7.6-1.4
		c3.1,0,5.8,0.5,8.1,1.5s4.2,2.4,5.4,4.4s1.9,4.1,2,6.5l-5.3,0.4c-0.3-2.6-1.2-4.6-2.9-5.9c-1.6-1.3-4-2-7.2-2
		c-3.3,0-5.7,0.6-7.3,1.8c-1.5,1.2-2.3,2.7-2.3,4.4c0,1.5,0.5,2.7,1.6,3.7s3.8,1.9,8.3,3c4.5,1,7.5,1.9,9.2,2.6
		c2.4,1.1,4.2,2.5,5.4,4.2s1.7,3.7,1.7,5.9c0,2.2-0.6,4.3-1.9,6.2c-1.3,2-3.1,3.5-5.5,4.6s-5,1.6-8,1.6c-3.8,0-6.9-0.5-9.4-1.6
		s-4.5-2.7-6-4.9C719.5,351.9,718.7,349.4,718.6,346.7z"/>
</g>
<g class="st6">
	<path class="st2" d="M401.1,738.7v-4.9h17.6v15.4c-2.7,2.2-5.5,3.8-8.4,4.9c-2.9,1.1-5.8,1.6-8.8,1.6c-4.1,0-7.8-0.9-11.1-2.6
		c-3.3-1.7-5.8-4.3-7.5-7.6s-2.5-7-2.5-11.1c0-4,0.8-7.8,2.5-11.3s4.1-6.1,7.3-7.8s6.8-2.5,11-2.5c3,0,5.7,0.5,8.1,1.5
		s4.3,2.3,5.7,4.1c1.4,1.7,2.4,4,3.1,6.8l-5,1.4c-0.6-2.1-1.4-3.8-2.3-5s-2.2-2.2-4-2.9c-1.7-0.7-3.6-1.1-5.7-1.1
		c-2.5,0-4.7,0.4-6.5,1.1c-1.8,0.8-3.3,1.8-4.4,3s-2,2.6-2.6,4.1c-1.1,2.6-1.6,5.4-1.6,8.4c0,3.7,0.6,6.8,1.9,9.3s3.1,4.3,5.6,5.6
		s5,1.8,7.8,1.8c2.4,0,4.7-0.5,7-1.4s4-1.9,5.2-2.9v-7.7h-12.4V738.7z"/>
	<path class="st2" d="M428,755l15.9-41.5h5.9l17,41.5h-6.3l-4.8-12.6h-17.4l-4.6,12.6H428z M440,738h14.1l-4.3-11.5
		c-1.3-3.5-2.3-6.4-2.9-8.6c-0.5,2.7-1.3,5.3-2.2,7.9L440,738z"/>
	<path class="st2" d="M476.9,755v-41.5h8.3l9.8,29.4c0.9,2.7,1.6,4.8,2,6.1c0.5-1.5,1.2-3.7,2.2-6.7l9.9-28.9h7.4V755h-5.3v-34.7
		L499.1,755h-5l-12-35.3V755H476.9z"/>
	<path class="st2" d="M532.1,755v-41.5h5.5V755H532.1z"/>
	<path class="st2" d="M553,755v-41.5h5.6l21.8,32.6v-32.6h5.3V755h-5.6l-21.8-32.6V755H553z"/>
	<path class="st2" d="M620.2,738.7v-4.9h17.6v15.4c-2.7,2.2-5.5,3.8-8.4,4.9c-2.9,1.1-5.8,1.6-8.8,1.6c-4.1,0-7.8-0.9-11.1-2.6
		c-3.3-1.7-5.8-4.3-7.5-7.6s-2.5-7-2.5-11.1c0-4,0.8-7.8,2.5-11.3s4.1-6.1,7.3-7.8s6.8-2.5,11-2.5c3,0,5.7,0.5,8.1,1.5
		c2.4,1,4.3,2.3,5.7,4.1s2.4,4,3.1,6.8l-5,1.4c-0.6-2.1-1.4-3.8-2.3-5s-2.2-2.2-4-2.9c-1.7-0.7-3.6-1.1-5.7-1.1
		c-2.5,0-4.7,0.4-6.5,1.1c-1.8,0.8-3.3,1.8-4.4,3c-1.1,1.2-2,2.6-2.6,4.1c-1.1,2.6-1.6,5.4-1.6,8.4c0,3.7,0.6,6.8,1.9,9.3
		c1.3,2.5,3.1,4.3,5.6,5.6s5,1.8,7.8,1.8c2.4,0,4.7-0.5,7-1.4s4-1.9,5.2-2.9v-7.7h-12.4V738.7z"/>
</g>
<g>
	<path class="st2" d="M259,827.5c-5.1,0-9.1-1.5-12.1-4.4c-2.9-2.9-4.4-7.2-4.4-12.8v-22.1h5.6v21.9c0,4.3,1,7.5,2.9,9.5
		c1.9,2,4.6,3,8.1,3c3.5,0,6.2-1,8.1-3c1.9-2,2.9-5.2,2.9-9.5v-21.9h5.4v22.1c0,5.6-1.5,9.9-4.4,12.8
		C268.1,826.1,264.1,827.5,259,827.5z"/>
	<path class="st2" d="M286.8,827.1v-38.9h4.6l25.7,32h-2.4v-32h5.6v38.9h-4.6l-25.7-32h2.4v32H286.8z"/>
	<path class="st2" d="M331.9,827.1v-38.9h5.6v38.9H331.9z"/>
	<path class="st2" d="M356.9,827.1V793h-13.3v-4.8h32.2v4.8h-13.3v34.1H356.9z"/>
	<path class="st2" d="M387.4,822.2H410v4.8h-28.2v-38.9h27.5v4.8h-21.9V822.2z M386.9,805h20v4.7h-20V805z"/>
	<path class="st2" d="M419.1,827.1v-38.9h16.4c4.1,0,7.8,0.8,11,2.4s5.6,3.9,7.4,6.8c1.8,2.9,2.6,6.3,2.6,10.2s-0.9,7.2-2.6,10.2
		c-1.8,2.9-4.2,5.2-7.4,6.8c-3.2,1.6-6.8,2.4-11,2.4H419.1z M424.6,822.2h10.5c3.2,0,6-0.6,8.4-1.8c2.4-1.2,4.2-2.9,5.5-5.1
		c1.3-2.2,1.9-4.8,1.9-7.6c0-2.9-0.6-5.5-1.9-7.7c-1.3-2.2-3.1-3.9-5.5-5.1c-2.4-1.2-5.1-1.8-8.4-1.8h-10.5V822.2z"/>
	<path class="st2" d="M479.9,827.1v-38.9h5.6v38.9H479.9z M484.8,817.7l-0.3-6.8l22.1-22.7h6.3l-17.1,18l-3.1,3.4L484.8,817.7z
		 M507.5,827.1l-16-18.6l3.7-4.1l18.7,22.7H507.5z"/>
	<path class="st2" d="M519.9,827.1v-38.9h5.6v38.9H519.9z"/>
	<path class="st2" d="M537.1,827.1v-38.9h4.6l25.7,32H565v-32h5.6v38.9H566l-25.7-32h2.4v32H537.1z"/>
	<path class="st2" d="M599.8,827.5c-3,0-5.8-0.5-8.3-1.5c-2.5-1-4.7-2.4-6.6-4.2c-1.9-1.8-3.3-3.9-4.3-6.3c-1-2.4-1.6-5.1-1.6-7.9
		c0-2.9,0.5-5.5,1.6-7.9c1-2.4,2.5-4.5,4.4-6.3c1.9-1.8,4.1-3.2,6.6-4.2c2.5-1,5.3-1.5,8.3-1.5c3.1,0,5.9,0.5,8.4,1.5
		c2.6,1,4.7,2.5,6.5,4.5l-3.4,3.4c-1.6-1.6-3.3-2.7-5.2-3.4s-3.9-1.1-6.1-1.1c-2.2,0-4.3,0.4-6.2,1.1c-1.9,0.7-3.6,1.8-4.9,3.1
		s-2.5,2.9-3.2,4.8c-0.8,1.8-1.1,3.8-1.1,6c0,2.1,0.4,4.1,1.1,5.9c0.8,1.8,1.8,3.4,3.2,4.8c1.4,1.4,3,2.4,4.9,3.1
		c1.9,0.7,3.9,1.1,6.2,1.1c2.1,0,4.1-0.3,6-1c1.9-0.6,3.7-1.7,5.3-3.3l3.2,4.2c-1.9,1.6-4.2,2.9-6.8,3.7
		C605.2,827.1,602.6,827.5,599.8,827.5z M609.2,821.9v-14.5h5.3v15.2L609.2,821.9z"/>
	<path class="st2" d="M625.2,827.1v-38.9h16.4c4.2,0,7.8,0.8,11,2.4c3.2,1.6,5.6,3.9,7.4,6.8c1.8,2.9,2.6,6.3,2.6,10.2
		s-0.9,7.2-2.6,10.2c-1.8,2.9-4.2,5.2-7.4,6.8c-3.2,1.6-6.8,2.4-11,2.4H625.2z M630.7,822.2h10.5c3.2,0,6-0.6,8.4-1.8
		c2.4-1.2,4.2-2.9,5.5-5.1c1.3-2.2,1.9-4.8,1.9-7.6c0-2.9-0.6-5.5-1.9-7.7c-1.3-2.2-3.1-3.9-5.5-5.1c-2.4-1.2-5.1-1.8-8.4-1.8h-10.5
		V822.2z"/>
	<path class="st2" d="M688.6,827.5c-3,0-5.7-0.5-8.3-1.5c-2.5-1-4.7-2.4-6.6-4.2c-1.9-1.8-3.3-3.9-4.3-6.3c-1-2.4-1.6-5-1.6-7.9
		s0.5-5.5,1.6-7.9c1-2.4,2.5-4.5,4.3-6.3c1.9-1.8,4-3.2,6.6-4.2c2.5-1,5.3-1.5,8.3-1.5c3,0,5.7,0.5,8.2,1.5c2.5,1,4.7,2.4,6.6,4.2
		c1.9,1.8,3.3,3.9,4.3,6.3c1,2.4,1.5,5.1,1.5,7.9c0,2.9-0.5,5.5-1.5,7.9c-1,2.4-2.5,4.5-4.3,6.3c-1.9,1.8-4.1,3.2-6.6,4.2
		C694.3,827,691.6,827.5,688.6,827.5z M688.6,822.6c2.1,0,4.1-0.4,6-1.1c1.8-0.7,3.4-1.8,4.8-3.1c1.4-1.4,2.4-2.9,3.2-4.8
		c0.8-1.8,1.1-3.8,1.1-5.9s-0.4-4.1-1.1-5.9c-0.8-1.8-1.8-3.4-3.2-4.8c-1.4-1.4-2.9-2.4-4.8-3.1c-1.8-0.7-3.8-1.1-6-1.1
		c-2.2,0-4.2,0.4-6,1.1c-1.8,0.7-3.4,1.8-4.8,3.1c-1.4,1.4-2.4,2.9-3.2,4.8c-0.8,1.8-1.1,3.8-1.1,5.9s0.4,4.1,1.1,5.9
		c0.8,1.8,1.8,3.4,3.2,4.8c1.4,1.4,3,2.4,4.8,3.1C684.5,822.2,686.5,822.6,688.6,822.6z"/>
	<path class="st2" d="M717.8,827.1v-38.9h4.6l17.5,29.4h-2.4l17.2-29.4h4.6l0.1,38.9h-5.3l-0.1-30.5h1.3l-15.3,25.8h-2.6l-15.5-25.8
		h1.4v30.5H717.8z"/>
</g>
</svg>
