<?xml version="1.0" encoding="utf-8"?>
<!-- Generator: Adobe Illustrator 28.2.0, SVG Export Plug-In . SVG Version: 6.00 Build 0)  -->
<svg version="1.1" id="Layer_1" xmlns="http://www.w3.org/2000/svg" xmlns:xlink="http://www.w3.org/1999/xlink" x="0px" y="0px"
	 viewBox="0 0 1814.22 527.45" style="enable-background:new 0 0 1814.22 527.45;" xml:space="preserve">
<style type="text/css">
	.st0{fill:#FBAA19;}
	.st1{fill:#FFFFFF;}
</style>
<g>
	<g>
		<g>
			<path class="st0" d="M65.78,106.89c25.02,0,45.3,20.28,45.3,45.3v50.16c0,20.38,9.39,39.47,32.36,39.47s32.36-19.09,32.36-39.47
				v-50.16c0-25.02,20.28-45.3,45.3-45.3h0v94.48c0,46.59-28.8,81.21-78.3,81.21c-47.89,0-77.01-33-77.01-81.21L65.78,106.89
				L65.78,106.89z"/>
			<path class="st0" d="M305.18,187.46l-56.95-80.57h0c31.75,0,61.21,16.54,77.75,43.64l4.76,7.8l5.87-9.42
				c16.27-26.13,44.88-42.02,75.67-42.02h0l-56.62,80.89l63.74,89.95h-53.39l-35.92-58.89l-36.88,58.89h-52.09L305.18,187.46z"/>
			<path class="st0" d="M556.27,106.9V126c-7.05-8.95-15.37-15.29-24.8-19.1c-4.83-2.06-9.98-3.41-15.45-4.12
				c-3.41-0.48-6.97-0.71-10.62-0.71c-50.08,0-80.83,44.93-80.83,91.21c0,45.64,30.35,89.3,78.29,89.3
				c22.98,0,43.03-10.7,55.63-29.79l1.27,24.96h41.76V106.9H556.27z M513.88,241.85c-27.18,0-43.03-24.64-43.03-49.53
				c0-25.6,16.16-49.53,43.03-49.53c27.5,0,43.03,24.25,43.03,49.53C556.91,217.92,540.74,241.85,513.88,241.85z"/>
			<path class="st0" d="M556.22,48.66v50.31h0c25.02,0,45.3-20.28,45.3-45.3v-5.01H556.22z"/>
		</g>
		<g>
			<g>
				<path class="st1" d="M742.92,72.71c32.86,0,63.19,16.85,77.23,47.46l-15.45,7.58c-11.8-24.43-33.98-39.04-61.22-39.04
					c-48.58,0-75.26,46.34-75.26,90.99c0,44.65,26.4,87.62,75.83,87.62c28.08,0,49.43-14.6,62.63-39.04l15.45,7.58
					c-14.88,30.61-44.37,47.46-78.63,47.46c-57.29,0-93.24-48.31-93.24-103.63C650.24,126.07,683.94,72.71,742.92,72.71z"/>
				<path class="st1" d="M849.07,205.83c0-40.72,26.96-76.11,70.21-76.11c42.69,0,69.65,34.26,69.65,76.11
					c0,40.72-26.68,76.11-70.21,76.11C876.31,281.94,849.07,247.11,849.07,205.83z M866.2,205.83c0,30.89,18.82,60.66,52.8,60.66
					c33.42,0,52.8-28.65,52.8-60.66c0-31.17-18.54-60.66-52.8-60.66C885.58,145.17,866.2,174.09,866.2,205.83z"/>
				<path class="st1" d="M1038.07,133.93l0.84,23.59c8.99-18.25,27.8-27.8,47.74-27.8c37.35,0,54.76,29.49,54.76,64.59v83.41h-16.85
					v-82.85c0-25.84-9.83-49.43-39.32-49.43c-26.4,0-45.5,19.66-45.5,46.34v85.94h-16.85V133.93H1038.07z"/>
				<path class="st1" d="M1186.07,244.02c8.43,14.88,22.47,23.03,39.6,23.03c16.85,0,34.54-9.27,34.54-28.37
					c0-13.2-9.27-21.91-27.52-25.84l-12.08-2.53c-21.91-4.49-44.09-13.2-44.09-39.32c0-26.68,24.15-41.28,48.87-41.28
					c21.91,0,41,10.11,49.99,30.61l-14.04,6.74c-7.58-14.32-20.22-22.47-36.51-22.47c-15.17,0-31.45,7.86-31.45,25.28
					c0,17.13,17.13,22.19,30.89,25.28l12.08,2.53c21.62,4.49,41,15.45,41,40.16c0,28.36-25.56,44.09-51.96,44.09
					c-21.91,0-42.97-10.67-53.08-30.61L1186.07,244.02z"/>
				<path class="st1" d="M1325.08,133.93v81.72c0,26.4,11.79,50.55,41.84,50.55c29.21,0,41.84-23.31,41.84-50.55v-81.72h16.85v82
					c0,36.23-19.94,66-59.54,66c-38.76,0-57.85-28.93-57.85-66v-82H1325.08z"/>
				<path class="st1" d="M1466.07,69.9h16.85v207.82h-16.85V69.9z"/>
				<path class="st1" d="M1535.15,133.93V85.91H1552v48.02h47.18v14.04H1552v89.59c0,15.73,7.02,28.93,24.15,28.93
					c7.86,0,16.29-2.81,22.75-7.02l6.74,12.92c-8.42,6.46-18.54,9.55-30.33,9.55c-27.24,0-40.16-18.54-40.16-44.37v-89.59h-27.24
					v-14.04H1535.15z"/>
				<path class="st1" d="M1640.46,244.02c8.43,14.88,22.47,23.03,39.6,23.03c16.85,0,34.54-9.27,34.54-28.37
					c0-13.2-9.27-21.91-27.52-25.84l-12.08-2.53c-21.91-4.49-44.09-13.2-44.09-39.32c0-26.68,24.15-41.28,48.87-41.28
					c21.91,0,41,10.11,49.99,30.61l-14.04,6.74c-7.58-14.32-20.22-22.47-36.51-22.47c-15.17,0-31.45,7.86-31.45,25.28
					c0,17.13,17.13,22.19,30.89,25.28l12.08,2.53c21.62,4.49,41,15.45,41,40.16c0,28.36-25.56,44.09-51.96,44.09
					c-21.91,0-42.97-10.67-53.08-30.61L1640.46,244.02z"/>
			</g>
		</g>
	</g>
	<g>
		<g>
			<path class="st1" d="M116.22,418.66h48.48v5.16h-54.21v-78.56h52.52v5.16h-46.8V418.66z M115.54,381.4h42.53v5.05h-42.53V381.4z"
				/>
			<path class="st1" d="M183.78,423.82v-83.27h5.61v83.27H183.78z"/>
			<path class="st1" d="M236.86,424.27c-5.91,0-11.13-1.27-15.66-3.82c-4.53-2.54-8.08-6.06-10.66-10.55
				c-2.58-4.49-3.87-9.61-3.87-15.38c0-5.84,1.22-10.98,3.65-15.43c2.43-4.45,5.78-7.95,10.04-10.49c4.26-2.54,9.05-3.82,14.36-3.82
				c5.31,0,10.08,1.23,14.31,3.7c4.23,2.47,7.56,5.93,9.99,10.38c2.43,4.45,3.65,9.6,3.65,15.43c0,0.22-0.02,0.47-0.06,0.73
				c-0.04,0.26-0.06,0.54-0.06,0.84h-51.74v-4.38h48.71l-2.24,2.13c0.07-4.56-0.88-8.66-2.86-12.29c-1.98-3.63-4.66-6.47-8.02-8.53
				c-3.37-2.06-7.26-3.09-11.67-3.09c-4.34,0-8.21,1.03-11.62,3.09c-3.41,2.06-6.08,4.9-8.02,8.53c-1.95,3.63-2.92,7.76-2.92,12.4
				v1.01c0,4.79,1.07,9.03,3.2,12.74s5.07,6.58,8.81,8.64c3.74,2.06,8,3.09,12.79,3.09c3.74,0,7.24-0.67,10.49-2.02
				c3.25-1.35,6-3.4,8.25-6.17l3.25,3.7c-2.54,3.14-5.74,5.52-9.6,7.13C245.52,423.47,241.35,424.27,236.86,424.27z"/>
			<path class="st1" d="M293.76,423.82l-26.37-58.58h5.95l24.69,55.44h-2.69l24.91-55.44h5.72l-26.49,58.58H293.76z"/>
			<path class="st1" d="M352.23,424.27c-4.34,0-8.1-0.69-11.28-2.08c-3.18-1.38-5.61-3.35-7.29-5.89c-1.68-2.54-2.52-5.46-2.52-8.75
				c0-2.99,0.69-5.71,2.08-8.14c1.38-2.43,3.68-4.41,6.9-5.95c3.22-1.53,7.52-2.3,12.91-2.3h21.55v4.38h-21.44
				c-6.06,0-10.31,1.12-12.74,3.37c-2.43,2.24-3.65,5.05-3.65,8.42c0,3.74,1.42,6.73,4.26,8.98c2.84,2.25,6.85,3.37,12.01,3.37
				c4.94,0,9.11-1.12,12.51-3.37c3.4-2.24,5.93-5.5,7.58-9.76l1.57,3.82c-1.57,4.26-4.25,7.65-8.02,10.16
				C362.87,423.02,358.06,424.27,352.23,424.27z M373.33,423.82v-13.36l-0.22-2.02v-22c0-5.46-1.48-9.61-4.43-12.46
				c-2.96-2.84-7.28-4.26-12.96-4.26c-4.04,0-7.8,0.69-11.28,2.08c-3.48,1.39-6.45,3.16-8.92,5.33l-2.81-4.04
				c2.92-2.62,6.43-4.66,10.55-6.12c4.11-1.46,8.42-2.19,12.91-2.19c7.26,0,12.83,1.83,16.72,5.5c3.89,3.67,5.84,9.13,5.84,16.38
				v37.15H373.33z"/>
			<path class="st1" d="M392.18,370.07v-4.83h35.01v4.83H392.18z M418.89,424.27c-5.16,0-9.11-1.42-11.84-4.26
				c-2.73-2.84-4.1-6.73-4.1-11.67v-55.89h5.61v55.33c0,3.74,0.93,6.62,2.81,8.64c1.87,2.02,4.56,3.03,8.08,3.03
				c3.67,0,6.7-1.08,9.09-3.25l2.36,3.93c-1.5,1.42-3.31,2.47-5.44,3.14C423.32,423.94,421.13,424.27,418.89,424.27z"/>
			<path class="st1" d="M449.3,350.99c-1.27,0-2.36-0.45-3.25-1.35c-0.9-0.9-1.35-1.95-1.35-3.14c0-1.27,0.45-2.36,1.35-3.25
				c0.9-0.9,1.98-1.35,3.25-1.35c1.35,0,2.45,0.43,3.31,1.29c0.86,0.86,1.29,1.93,1.29,3.2c0,1.27-0.43,2.36-1.29,3.25
				C451.75,350.54,450.65,350.99,449.3,350.99z M446.5,423.82v-58.58h5.61v58.58H446.5z"/>
			<path class="st1" d="M504.41,364.79c4.79,0,8.96,0.92,12.51,2.75c3.55,1.83,6.32,4.6,8.3,8.31c1.98,3.7,2.97,8.29,2.97,13.75
				v34.23h-5.61v-33.78c0-6.58-1.67-11.6-4.99-15.04c-3.33-3.44-7.99-5.16-13.97-5.16c-4.56,0-8.53,0.94-11.9,2.81
				c-3.37,1.87-5.93,4.49-7.69,7.86c-1.76,3.37-2.64,7.41-2.64,12.12v31.2h-5.61v-58.58h5.39v16.27l-0.79-1.8
				c1.8-4.64,4.75-8.29,8.87-10.94C493.37,366.12,498.42,364.79,504.41,364.79z"/>
			<path class="st1" d="M574.1,421.69c-5.54,0-10.49-1.22-14.87-3.65c-4.38-2.43-7.86-5.8-10.44-10.1
				c-2.58-4.3-3.87-9.22-3.87-14.76c0-5.61,1.29-10.55,3.87-14.81c2.58-4.26,6.06-7.59,10.44-9.99c4.38-2.39,9.33-3.59,14.87-3.59
				c5.31,0,10.08,1.14,14.31,3.42c4.23,2.28,7.58,5.54,10.04,9.76c2.47,4.23,3.7,9.3,3.7,15.21c0,5.84-1.23,10.89-3.7,15.15
				c-2.47,4.26-5.82,7.56-10.04,9.88C584.18,420.53,579.41,421.69,574.1,421.69z M575.67,446.05c-5.31,0-10.36-0.82-15.15-2.47
				c-4.79-1.65-8.68-3.93-11.67-6.85l3.03-4.26c2.92,2.69,6.41,4.79,10.49,6.28c4.08,1.5,8.47,2.25,13.19,2.25
				c7.86,0,13.64-1.83,17.34-5.5c3.7-3.67,5.56-9.43,5.56-17.28v-16.27l1.12-8.75l-0.9-8.75v-19.19h5.39v52.3
				c0,9.8-2.38,17-7.13,21.6C592.18,443.74,585.09,446.05,575.67,446.05z M574.55,416.64c4.71,0,8.87-0.99,12.46-2.97
				c3.59-1.98,6.41-4.75,8.47-8.3c2.06-3.55,3.09-7.61,3.09-12.18c0-4.64-1.03-8.72-3.09-12.23c-2.06-3.52-4.88-6.25-8.47-8.19
				c-3.59-1.94-7.74-2.92-12.46-2.92c-4.56,0-8.66,0.97-12.29,2.92c-3.63,1.95-6.47,4.68-8.53,8.19c-2.06,3.52-3.09,7.59-3.09,12.23
				c0,4.56,1.03,8.62,3.09,12.18c2.06,3.55,4.9,6.32,8.53,8.3C565.88,415.65,569.98,416.64,574.55,416.64z"/>
			<path class="st1" d="M658.49,423.82v-78.56h31.09c8.31,0,15.6,1.68,21.88,5.05c6.29,3.37,11.17,8.01,14.65,13.92
				c3.48,5.91,5.22,12.68,5.22,20.31c0,7.63-1.74,14.4-5.22,20.31c-3.48,5.91-8.36,10.55-14.65,13.92
				c-6.28,3.37-13.58,5.05-21.88,5.05H658.49z M664.21,418.66h24.91c7.41,0,13.84-1.46,19.3-4.38c5.46-2.92,9.69-6.94,12.68-12.06
				c2.99-5.12,4.49-11.02,4.49-17.68c0-6.66-1.5-12.55-4.49-17.68c-2.99-5.12-7.22-9.15-12.68-12.06c-5.46-2.92-11.9-4.38-19.3-4.38
				h-24.91V418.66z"/>
			<path class="st1" d="M752.2,350.99c-1.27,0-2.36-0.45-3.25-1.35c-0.9-0.9-1.35-1.95-1.35-3.14c0-1.27,0.45-2.36,1.35-3.25
				c0.9-0.9,1.98-1.35,3.25-1.35c1.35,0,2.45,0.43,3.31,1.29c0.86,0.86,1.29,1.93,1.29,3.2c0,1.27-0.43,2.36-1.29,3.25
				C754.65,350.54,753.54,350.99,752.2,350.99z M749.39,423.82v-58.58H755v58.58H749.39z"/>
			<path class="st1" d="M801.46,421.69c-5.54,0-10.49-1.22-14.87-3.65c-4.38-2.43-7.86-5.8-10.44-10.1
				c-2.58-4.3-3.87-9.22-3.87-14.76c0-5.61,1.29-10.55,3.87-14.81c2.58-4.26,6.06-7.59,10.44-9.99c4.38-2.39,9.33-3.59,14.87-3.59
				c5.31,0,10.08,1.14,14.31,3.42c4.23,2.28,7.58,5.54,10.04,9.76c2.47,4.23,3.7,9.3,3.7,15.21c0,5.84-1.23,10.89-3.7,15.15
				c-2.47,4.26-5.82,7.56-10.04,9.88C811.54,420.53,806.78,421.69,801.46,421.69z M803.03,446.05c-5.31,0-10.36-0.82-15.15-2.47
				c-4.79-1.65-8.68-3.93-11.67-6.85l3.03-4.26c2.92,2.69,6.41,4.79,10.49,6.28c4.08,1.5,8.47,2.25,13.19,2.25
				c7.86,0,13.64-1.83,17.34-5.5c3.7-3.67,5.56-9.43,5.56-17.28v-16.27l1.12-8.75l-0.9-8.75v-19.19h5.39v52.3
				c0,9.8-2.38,17-7.13,21.6C819.55,443.74,812.46,446.05,803.03,446.05z M801.91,416.64c4.71,0,8.87-0.99,12.46-2.97
				c3.59-1.98,6.41-4.75,8.47-8.3c2.06-3.55,3.09-7.61,3.09-12.18c0-4.64-1.03-8.72-3.09-12.23c-2.06-3.52-4.88-6.25-8.47-8.19
				c-3.59-1.94-7.74-2.92-12.46-2.92c-4.56,0-8.66,0.97-12.29,2.92c-3.63,1.95-6.47,4.68-8.53,8.19c-2.06,3.52-3.09,7.59-3.09,12.23
				c0,4.56,1.03,8.62,3.09,12.18c2.06,3.55,4.9,6.32,8.53,8.3C793.25,415.65,797.35,416.64,801.91,416.64z"/>
			<path class="st1" d="M858.02,350.99c-1.27,0-2.36-0.45-3.25-1.35c-0.9-0.9-1.35-1.95-1.35-3.14c0-1.27,0.45-2.36,1.35-3.25
				c0.9-0.9,1.98-1.35,3.25-1.35c1.35,0,2.45,0.43,3.31,1.29c0.86,0.86,1.29,1.93,1.29,3.2c0,1.27-0.43,2.36-1.29,3.25
				C860.47,350.54,859.37,350.99,858.02,350.99z M855.22,423.82v-58.58h5.61v58.58H855.22z"/>
			<path class="st1" d="M874.86,370.07v-4.83h35.01v4.83H874.86z M901.57,424.27c-5.16,0-9.11-1.42-11.84-4.26
				c-2.73-2.84-4.1-6.73-4.1-11.67v-55.89h5.61v55.33c0,3.74,0.93,6.62,2.81,8.64c1.87,2.02,4.56,3.03,8.08,3.03
				c3.67,0,6.7-1.08,9.09-3.25l2.36,3.93c-1.5,1.42-3.31,2.47-5.44,3.14C906,423.94,903.81,424.27,901.57,424.27z"/>
			<path class="st1" d="M945,424.27c-4.34,0-8.1-0.69-11.28-2.08c-3.18-1.38-5.61-3.35-7.29-5.89c-1.68-2.54-2.53-5.46-2.53-8.75
				c0-2.99,0.69-5.71,2.08-8.14c1.38-2.43,3.68-4.41,6.9-5.95c3.22-1.53,7.52-2.3,12.91-2.3h21.55v4.38H945.9
				c-6.06,0-10.31,1.12-12.74,3.37c-2.43,2.24-3.65,5.05-3.65,8.42c0,3.74,1.42,6.73,4.26,8.98c2.84,2.25,6.85,3.37,12.01,3.37
				c4.94,0,9.11-1.12,12.51-3.37c3.4-2.24,5.93-5.5,7.58-9.76l1.57,3.82c-1.57,4.26-4.25,7.65-8.02,10.16
				C955.64,423.02,950.83,424.27,945,424.27z M966.1,423.82v-13.36l-0.22-2.02v-22c0-5.46-1.48-9.61-4.43-12.46
				c-2.96-2.84-7.28-4.26-12.96-4.26c-4.04,0-7.8,0.69-11.28,2.08c-3.48,1.39-6.45,3.16-8.92,5.33l-2.81-4.04
				c2.92-2.62,6.43-4.66,10.55-6.12c4.11-1.46,8.42-2.19,12.91-2.19c7.26,0,12.83,1.83,16.72,5.5c3.89,3.67,5.84,9.13,5.84,16.38
				v37.15H966.1z"/>
			<path class="st1" d="M994.6,423.82v-83.27h5.61v83.27H994.6z"/>
			<path class="st1" d="M1060.25,418.66h48.48v5.16h-54.21v-78.56h52.52v5.16h-46.8V418.66z M1059.58,381.4h42.53v5.05h-42.53V381.4
				z"/>
			<path class="st1" d="M1116.59,423.82l24.35-31.65l-0.11,2.69l-23.01-29.63h6.4l20.09,25.92h-2.36l19.98-25.92h6.29l-23.23,29.96
				l0.11-3.03l24.69,31.65h-6.62l-21.21-27.61l2.13,0.22l-21.1,27.38H1116.59z"/>
			<path class="st1" d="M1184.15,445.6v-80.35h5.39v19.19l-0.9,10.21l1.12,10.21v40.74H1184.15z M1213.55,424.27
				c-5.16,0-9.82-1.2-13.97-3.59c-4.15-2.39-7.45-5.82-9.88-10.27c-2.43-4.45-3.65-9.74-3.65-15.88c0-6.13,1.22-11.43,3.65-15.88
				c2.43-4.45,5.72-7.87,9.88-10.27c4.15-2.39,8.81-3.59,13.97-3.59c5.54,0,10.49,1.25,14.87,3.76c4.38,2.51,7.82,6,10.32,10.49
				c2.51,4.49,3.76,9.65,3.76,15.49s-1.25,11-3.76,15.49c-2.51,4.49-5.95,7.99-10.32,10.49
				C1224.05,423.02,1219.09,424.27,1213.55,424.27z M1213.22,419.22c4.49,0,8.53-1.03,12.12-3.09c3.59-2.06,6.42-4.96,8.47-8.7
				c2.06-3.74,3.09-8.04,3.09-12.91c0-4.94-1.03-9.26-3.09-12.96c-2.06-3.7-4.88-6.58-8.47-8.64c-3.59-2.06-7.63-3.09-12.12-3.09
				s-8.51,1.03-12.06,3.09c-3.55,2.06-6.36,4.94-8.42,8.64c-2.06,3.7-3.09,8.02-3.09,12.96c0,4.86,1.03,9.17,3.09,12.91
				c2.06,3.74,4.86,6.64,8.42,8.7C1204.7,418.2,1208.73,419.22,1213.22,419.22z"/>
			<path class="st1" d="M1283.69,424.27c-5.91,0-11.13-1.27-15.66-3.82c-4.53-2.54-8.08-6.06-10.66-10.55s-3.87-9.61-3.87-15.38
				c0-5.84,1.21-10.98,3.65-15.43c2.43-4.45,5.78-7.95,10.04-10.49c4.26-2.54,9.05-3.82,14.37-3.82c5.31,0,10.08,1.23,14.31,3.7
				c4.23,2.47,7.56,5.93,9.99,10.38c2.43,4.45,3.65,9.6,3.65,15.43c0,0.22-0.02,0.47-0.06,0.73c-0.04,0.26-0.06,0.54-0.06,0.84
				h-51.74v-4.38h48.71l-2.25,2.13c0.07-4.56-0.88-8.66-2.86-12.29c-1.98-3.63-4.66-6.47-8.02-8.53c-3.37-2.06-7.26-3.09-11.67-3.09
				c-4.34,0-8.21,1.03-11.62,3.09c-3.41,2.06-6.08,4.9-8.02,8.53c-1.95,3.63-2.92,7.76-2.92,12.4v1.01c0,4.79,1.07,9.03,3.2,12.74
				c2.13,3.7,5.07,6.58,8.81,8.64c3.74,2.06,8,3.09,12.79,3.09c3.74,0,7.24-0.67,10.49-2.02c3.25-1.35,6-3.4,8.25-6.17l3.25,3.7
				c-2.54,3.14-5.74,5.52-9.6,7.13C1292.35,423.47,1288.18,424.27,1283.69,424.27z"/>
			<path class="st1" d="M1326.9,423.82v-58.58h5.39v16.05l-0.56-1.8c1.64-4.71,4.41-8.34,8.3-10.89c3.89-2.54,8.75-3.82,14.59-3.82
				v5.5c-0.22,0-0.45-0.02-0.67-0.06c-0.22-0.04-0.45-0.06-0.67-0.06c-6.51,0-11.6,2.04-15.26,6.12c-3.67,4.08-5.5,9.75-5.5,17
				v30.53H1326.9z"/>
			<path class="st1" d="M1372.91,350.99c-1.27,0-2.36-0.45-3.25-1.35c-0.9-0.9-1.35-1.95-1.35-3.14c0-1.27,0.45-2.36,1.35-3.25
				s1.98-1.35,3.25-1.35c1.35,0,2.45,0.43,3.31,1.29c0.86,0.86,1.29,1.93,1.29,3.2c0,1.27-0.43,2.36-1.29,3.25
				C1375.36,350.54,1374.26,350.99,1372.91,350.99z M1370.11,423.82v-58.58h5.61v58.58H1370.11z"/>
			<path class="st1" d="M1423.19,424.27c-5.91,0-11.13-1.27-15.66-3.82c-4.53-2.54-8.08-6.06-10.66-10.55s-3.87-9.61-3.87-15.38
				c0-5.84,1.21-10.98,3.65-15.43c2.43-4.45,5.78-7.95,10.04-10.49c4.26-2.54,9.05-3.82,14.37-3.82c5.31,0,10.08,1.23,14.31,3.7
				c4.23,2.47,7.56,5.93,9.99,10.38c2.43,4.45,3.65,9.6,3.65,15.43c0,0.22-0.02,0.47-0.06,0.73c-0.04,0.26-0.06,0.54-0.06,0.84
				h-51.74v-4.38h48.71l-2.25,2.13c0.07-4.56-0.88-8.66-2.86-12.29c-1.98-3.63-4.66-6.47-8.02-8.53c-3.37-2.06-7.26-3.09-11.67-3.09
				c-4.34,0-8.21,1.03-11.62,3.09c-3.41,2.06-6.08,4.9-8.02,8.53c-1.95,3.63-2.92,7.76-2.92,12.4v1.01c0,4.79,1.07,9.03,3.2,12.74
				c2.13,3.7,5.07,6.58,8.81,8.64c3.74,2.06,8,3.09,12.79,3.09c3.74,0,7.24-0.67,10.49-2.02c3.25-1.35,6-3.4,8.25-6.17l3.25,3.7
				c-2.54,3.14-5.74,5.52-9.6,7.13C1431.85,423.47,1427.68,424.27,1423.19,424.27z"/>
			<path class="st1" d="M1495.01,364.79c4.79,0,8.96,0.92,12.51,2.75c3.55,1.83,6.32,4.6,8.3,8.31c1.98,3.7,2.97,8.29,2.97,13.75
				v34.23h-5.61v-33.78c0-6.58-1.67-11.6-4.99-15.04c-3.33-3.44-7.99-5.16-13.97-5.16c-4.56,0-8.53,0.94-11.9,2.81
				c-3.37,1.87-5.93,4.49-7.69,7.86c-1.76,3.37-2.64,7.41-2.64,12.12v31.2h-5.61v-58.58h5.39v16.27l-0.79-1.8
				c1.8-4.64,4.75-8.29,8.87-10.94C1483.98,366.12,1489.03,364.79,1495.01,364.79z"/>
			<path class="st1" d="M1565.15,424.27c-5.69,0-10.76-1.27-15.21-3.82c-4.45-2.54-7.97-6.06-10.55-10.55s-3.87-9.61-3.87-15.38
				c0-5.84,1.29-11,3.87-15.49s6.1-7.99,10.55-10.49c4.45-2.51,9.52-3.76,15.21-3.76c4.71,0,9,0.9,12.85,2.69
				c3.85,1.8,6.98,4.49,9.37,8.08l-4.15,3.03c-2.1-2.99-4.71-5.2-7.86-6.62c-3.14-1.42-6.55-2.13-10.21-2.13
				c-4.56,0-8.66,1.03-12.29,3.09c-3.63,2.06-6.47,4.94-8.53,8.64c-2.06,3.7-3.09,8.02-3.09,12.96c0,4.94,1.03,9.26,3.09,12.96
				c2.06,3.7,4.9,6.58,8.53,8.64c3.63,2.06,7.72,3.09,12.29,3.09c3.67,0,7.07-0.71,10.21-2.13c3.14-1.42,5.76-3.63,7.86-6.62
				l4.15,3.03c-2.39,3.59-5.52,6.29-9.37,8.08C1574.15,423.38,1569.87,424.27,1565.15,424.27z"/>
			<path class="st1" d="M1626.99,424.27c-5.91,0-11.13-1.27-15.66-3.82c-4.53-2.54-8.08-6.06-10.66-10.55s-3.87-9.61-3.87-15.38
				c0-5.84,1.21-10.98,3.65-15.43c2.43-4.45,5.78-7.95,10.04-10.49c4.26-2.54,9.05-3.82,14.37-3.82c5.31,0,10.08,1.23,14.31,3.7
				c4.23,2.47,7.56,5.93,9.99,10.38c2.43,4.45,3.65,9.6,3.65,15.43c0,0.22-0.02,0.47-0.06,0.73c-0.04,0.26-0.06,0.54-0.06,0.84
				h-51.74v-4.38h48.71l-2.25,2.13c0.07-4.56-0.88-8.66-2.86-12.29c-1.98-3.63-4.66-6.47-8.02-8.53c-3.37-2.06-7.26-3.09-11.67-3.09
				c-4.34,0-8.21,1.03-11.62,3.09c-3.41,2.06-6.08,4.9-8.02,8.53c-1.95,3.63-2.92,7.76-2.92,12.4v1.01c0,4.79,1.07,9.03,3.2,12.74
				c2.13,3.7,5.07,6.58,8.81,8.64c3.74,2.06,8,3.09,12.79,3.09c3.74,0,7.24-0.67,10.49-2.02c3.25-1.35,6-3.4,8.25-6.17l3.25,3.7
				c-2.54,3.14-5.74,5.52-9.6,7.13C1635.65,423.47,1631.48,424.27,1626.99,424.27z"/>
			<path class="st1" d="M1685.01,424.27c-4.86,0-9.41-0.71-13.64-2.13c-4.23-1.42-7.5-3.22-9.82-5.39l2.58-4.49
				c2.24,1.95,5.24,3.61,8.98,4.99c3.74,1.39,7.78,2.08,12.12,2.08c6.13,0,10.55-1.01,13.24-3.03c2.69-2.02,4.04-4.67,4.04-7.97
				c0-2.39-0.69-4.28-2.08-5.67c-1.39-1.38-3.24-2.45-5.56-3.2c-2.32-0.75-4.86-1.36-7.63-1.85c-2.77-0.49-5.54-1.03-8.3-1.63
				c-2.77-0.6-5.31-1.46-7.63-2.58c-2.32-1.12-4.17-2.67-5.56-4.66c-1.38-1.98-2.08-4.62-2.08-7.91c0-2.99,0.82-5.68,2.47-8.08
				c1.65-2.39,4.11-4.32,7.41-5.78c3.29-1.46,7.41-2.19,12.34-2.19c3.67,0,7.35,0.52,11.05,1.57c3.7,1.05,6.71,2.43,9.03,4.15
				l-2.58,4.49c-2.47-1.87-5.24-3.22-8.3-4.04c-3.07-0.82-6.17-1.23-9.31-1.23c-5.69,0-9.86,1.05-12.51,3.14
				c-2.66,2.1-3.98,4.71-3.98,7.86c0,2.47,0.69,4.43,2.08,5.89c1.38,1.46,3.24,2.58,5.56,3.37c2.32,0.79,4.86,1.42,7.63,1.91
				c2.77,0.49,5.54,1.03,8.3,1.63c2.77,0.6,5.31,1.44,7.63,2.53c2.32,1.09,4.17,2.58,5.56,4.49c1.38,1.91,2.08,4.47,2.08,7.69
				c0,3.22-0.88,6.02-2.64,8.42c-1.76,2.4-4.36,4.26-7.8,5.61C1694.25,423.6,1690.02,424.27,1685.01,424.27z"/>
		</g>
	</g>
</g>
</svg>
